<svg xmlns="http://www.w3.org/2000/svg" id="Layer_1" data-name="Layer 1" viewBox="194.74 437.34 1516.65 437.08"><defs><style>.cls-1{fill:#eaaa42;}.cls-2{fill:#293b76;}.cls-3{fill:#162345;}</style></defs><path class="cls-1" d="M519.44,790c-2,7.89,6.63,20.9,23,34.79a8.16,8.16,0,0,1-7.27,14.15l-.23-.06a.51.51,0,0,1-.14,0c-24.7-6.18-83.38-24.59-103.6-63.16-24-45.68,2.38-96.49,32.9-155.31,28.23-54.41,60-115.6,55.49-183.07,4.26,1.64,8.47,3.43,12.62,5.34,2.55,68.28-29,129.14-57.16,183.4-20.43,39.37-38.88,74.93-40.58,106.51-.72,13.17,1.48,25.65,7.64,37.4A60.79,60.79,0,0,0,450,781.28c8.57,10,20.36,18.2,32.71,24.8a209.65,209.65,0,0,0,21.39,9.86c6.45,2.55,12.59,4.69,18,6.41-.88-.94-1.73-1.91-2.57-2.89-.64-.76-1.27-1.53-1.89-2.3-1.11-1.38-2.16-2.78-3.12-4.2-5.82-8.42-9.21-17.44-7.07-26,2.59-10.35,12.59-17.69,29.75-21.8l2.14-.49C594,752.8,639.7,739.45,661,729.5q-2.46,7.95-5.46,15.7C620.46,759.05,563,772.14,542,776.72c-9.27,2-20.71,5.94-22.52,13.23"/><path class="cls-1" d="M560.51,741.4c48.1-17.43,84-38.15,109.62-56.48q-.9,8.51-2.43,16.82c-25.45,17.08-59.32,35.43-103,51.25a190.66,190.66,0,0,0-27.49,12.16c-18.39,10.25-23.4,19.46-23.81,26.1-.93,14.67,19.8,28.58,27.88,32.68l-2.9,6.87-.08.2-1.81,4.28a2.31,2.31,0,0,0-.29-.11c-2.63-.92-19.8-7.27-32.11-19.23-.55-.53-1.09-1.09-1.6-1.64a43.55,43.55,0,0,1-5.3-6.6,34.09,34.09,0,0,1-5.7-15.33q-1.41-13.62,9-27.63,12.06-16.28,40-32.85c61.6-36.58,101.23-65.57,129.73-97.09.57,5.65,1,11.26,1.13,16.85-28.6,29.2-67.37,56.87-124.58,90.84A169.68,169.68,0,0,0,520.63,761c9.66-7,22.91-13.5,39.88-19.64"/><path class="cls-1" d="M661.5,591c-24.62,58.27-47.67,75.94-93.82,111.34-11.44,8.77-24.43,18.74-39.24,30.72-13.62,11-22.93,21.57-27.93,31.64-3.69,7.44-5,14.61-3.92,21.45,1.75,11,9.51,20,17.94,26.77A90.2,90.2,0,0,0,523.1,819c1.17.74,2.34,1.42,3.45,2.08a104,104,0,0,0,12.18,6,.67.67,0,0,0,.17.06l-.25.74-2.45,7.27,0,.15,0,0L535,838.83a.51.51,0,0,1-.14,0,133.18,133.18,0,0,1-18.39-7.31q-1.92-.93-3.93-2c-10.08-5.3-21.53-13-29.81-23.42l-.66-.86a51.53,51.53,0,0,1-9.51-19.6,40.78,40.78,0,0,1-.84-4.73c-2.82-21.88,9.84-45.84,37.66-71.32,80.91-74.07,112.84-124,117.2-189.56q5.73,7.95,10.8,16.4c-8.24,61.6-42.3,111.4-119.66,182.25-24.8,22.7-36.12,43.16-33.76,60.89.81-18.14,13.13-37,36.76-56,14.94-12.08,28-22.06,39.49-30.9C609,655.12,630,639.08,655.4,573.25q3.42,8.71,6.1,17.79"/><path class="cls-1" d="M539.08,823.28l.49.08-1.19,7.44-.2,1.27-.56,3.47c-.12,0-.26,0-.45-.06l-1-.16a174.12,174.12,0,0,1-23.65-5.82c-21.59-6.92-51-20.91-62.29-47.62a4.92,4.92,0,0,1-.23-.6A57.79,57.79,0,0,1,445.61,760c-.45-20,8.43-42.64,26.55-67.58,73.19-100.66,108.18-152.91,97.53-228.4,4.65,3.21,9.17,6.62,13.54,10.17,6.42,77.58-34.12,133.39-101.08,225.48-15.23,20.94-23.3,39.7-24.15,56q4.61-22.85,27.08-49.31,8.12-9.52,16.05-18.74c58-67.45,104.81-121.94,95.64-201.58q6.94,6.53,13.34,13.64c2.51,77.11-45.39,132.85-99.63,196q-7.92,9.19-16,18.68C472.69,740,464.91,762.09,471.34,780c.1.3.22.61.35.9,4.5,11.63,14.53,20.38,25.5,26.81a123.76,123.76,0,0,0,20.46,9.45c1.89.68,3.72,1.32,5.45,1.87a158.76,158.76,0,0,0,16,4.26"/><path class="cls-1" d="M539.08,823.28l.08,0-.43,3.8-.08.8-.35,3.1-.12,1.07-.39,3.49-.17,0c-.12,0-.26,0-.45-.06s-.62-.06-1-.12a189.38,189.38,0,0,1-19.7-3.88C492.07,825.37,453.71,811,438.69,779q-9.74-20.78-4.19-46.5,5.12-23.64,23.15-51.16c69.72-106.16,93.49-168.46,84.14-234.11q6.72,3.42,13.17,7.3C561.23,520,535.67,585,468,688.1,449.76,715.84,442.26,740,445.61,760a51.51,51.51,0,0,0,4.24,13.68c6.53,13.95,18.8,24.12,32.19,31.5a142.57,142.57,0,0,0,20.45,9.08c6.08,2.18,11.89,3.86,17,5.16,2.51.63,4.87,1.19,7,1.64,7.06,1.5,11.83,2.1,12.53,2.18"/><path class="cls-2" d="M385.9,692.83c-28,54-59.5,114.71-55.57,181.59-4.27-2-8.47-4.19-12.6-6.49C316.05,800.7,347.16,740.72,375,687.16c20.43-39.37,38.88-74.94,40.58-106.52.72-13.17-1.48-25.64-7.64-37.39A60.79,60.79,0,0,0,400,531.87c-8.55-10-20.36-18.21-32.71-24.8a208.79,208.79,0,0,0-21.39-9.87c-6.45-2.56-12.59-4.7-18-6.43.89,1,1.73,1.91,2.57,2.9.66.78,1.32,1.56,1.93,2.36,1.09,1.36,2.12,2.74,3.11,4.13,5.79,8.42,9.18,17.45,7,26C340,536.53,330,543.84,312.88,548c-.72.19-1.44.35-2.18.52-40.59,8.81-76.28,18.45-100.65,26.91q2.89-7.7,6.33-15.16c33.59-10.79,74.6-20.09,91.7-23.79,9.28-2,20.71-5.94,22.53-13.24,2-7.89-6.65-20.89-23-34.78a8.17,8.17,0,0,1,7.26-14.16l.22.06a.51.51,0,0,1,.14,0c24.7,6.19,83.38,24.58,103.6,63.17,24,45.67-2.38,96.48-32.9,155.31"/><path class="cls-2" d="M349.52,548.41c-8,10.82-21.39,21.82-40,32.85-51.47,30.57-87.62,55.82-114.74,81.73-.1-5.73,0-11.46.35-17.13,26.67-23.71,61.17-47.34,108.1-75.2A171,171,0,0,0,329.4,552.1q-14.47,10.46-39.86,19.65c-37.25,13.49-67.21,29-90.73,43.82q1.58-8.57,3.8-16.93a496.17,496.17,0,0,1,82.72-38.48A187.24,187.24,0,0,0,312.88,548c18.35-10.25,23.34-19.43,23.76-26.05.92-14.67-19.81-28.58-27.89-32.71l2.9-6.86.08-.19,1.81-4.27a2.86,2.86,0,0,0,.29.1c2.63.93,19.81,7.25,32.11,19.23.56.54,1.07,1.07,1.61,1.61a47.46,47.46,0,0,1,5.34,6.67,34.16,34.16,0,0,1,5.65,15.27q1.41,13.62-9,27.66"/><path class="cls-2" d="M340.68,603.57c-73.78,67.56-106.82,115-115.39,172.59-3.33-5.91-6.41-12-9.2-18.22C228.44,704.6,263,658,332.36,594.49c24.78-22.7,36.12-43.17,33.74-60.9-.8,18.14-13.13,37-36.76,56-14.94,12.06-28,22.07-39.49,30.9-43.62,33.48-65,49.85-87.14,99.82-1.7-6.43-3.14-13-4.29-19.64,21.35-41.94,44-59.3,83.93-90C293.8,602,306.78,592,321.6,580.05q20.43-16.5,27.92-31.65c3.7-7.43,5-14.6,3.92-21.44-1.74-11-9.49-20-17.91-26.8a93.33,93.33,0,0,0-8.61-6c-1.19-.76-2.37-1.46-3.5-2.12a102.78,102.78,0,0,0-12.12-6l-.16-.06.24-.75,2.45-7.27.06-.14v0l1.17-3.47a.68.68,0,0,1,.15,0,128.63,128.63,0,0,1,18.39,7.31c1.25.6,2.54,1.25,3.88,1.95,10.09,5.3,21.57,13,29.85,23.45.23.26.45.55.66.84a51.4,51.4,0,0,1,9.51,19.62,42.12,42.12,0,0,1,.82,4.62c2.88,21.91-9.78,45.9-37.64,71.42"/><path class="cls-2" d="M377.87,620.67C307.15,717.93,272.1,770,279.41,841.5q-6.78-5.7-13.15-11.94c-2.55-72.83,37.4-127.77,101.63-216.12,15.22-21,23.3-39.7,24.14-56-3.06,15.22-12.12,31.7-27.08,49.31q-8.11,9.53-16.05,18.74c-54.92,63.9-99.84,116.14-96.63,189.15q-6.44-7.47-12.22-15.47c3.39-69.9,48.65-122.54,99.5-181.72q7.92-9.21,16-18.68c21.78-25.64,29.57-47.68,23.15-65.58-.12-.35-.24-.7-.39-1-4.52-11.52-14.48-20.23-25.43-26.67A124.42,124.42,0,0,0,332.42,496c-1.91-.72-3.74-1.33-5.5-1.89a138.58,138.58,0,0,0-16.46-4.35l1.19-7.46.21-1.24.55-3.49c.12,0,.27,0,.45.06s.6.11,1,.17a172.62,172.62,0,0,1,23.59,5.79c21.59,6.93,51,20.92,62.33,47.65a4.79,4.79,0,0,1,.23.59,57.88,57.88,0,0,1,4.38,21.21c.47,20-8.41,42.65-26.55,67.6"/><path class="cls-2" d="M415.53,580.64c-3.41,15.76-11.13,32.86-23.15,51.16-68.36,104.09-92.54,166-84.61,230.27-4.48-2.75-8.88-5.67-13.15-8.73-4.42-63.76,21.57-128,87.44-228.32,18.23-27.73,25.71-51.88,22.36-71.95a51.41,51.41,0,0,0-4.23-13.68c-6.56-14-18.82-24.13-32.2-31.48a142.34,142.34,0,0,0-20.44-9.11c-6.09-2.15-11.9-3.86-17.06-5.13-2.53-.66-4.91-1.19-7.07-1.65-7.48-1.6-12.37-2.17-12.55-2.19l.43-3.78.08-.81.35-3.1.13-1,.39-3.52.16,0c.12,0,.27,0,.45.06s.62.07,1,.13a186.36,186.36,0,0,1,19.7,3.88c24.37,6.1,62.73,20.51,77.75,52.48q9.74,20.77,4.19,46.49"/><rect class="cls-3" x="947.03" y="734.24" width="4.38" height="31.35"/><polygon class="cls-3" points="965.05 765.59 965.05 734.24 971.87 734.24 981.26 758.33 981.35 758.33 990.61 734.24 997.43 734.24 997.43 765.59 993.04 765.59 993.04 739.38 992.95 739.38 982.55 765.59 979.76 765.59 969.39 739.38 969.3 739.38 969.3 765.59 965.05 765.59"/><path class="cls-3" d="M1011.07,765.59V734.24h9.56c3.75,0,6.55.77,8.42,2.3a7.9,7.9,0,0,1,2.78,6.42q0,4.56-3.16,6.71a14.47,14.47,0,0,1-8.26,2.15h-5v13.77Zm4.38-17.49h4.65c2.57,0,4.43-.46,5.58-1.4a4.56,4.56,0,0,0,1.73-3.74,4.23,4.23,0,0,0-1.84-3.76,9.62,9.62,0,0,0-5.38-1.24h-4.74Z"/><path class="cls-3" d="M1058.41,766.39a16.61,16.61,0,0,1-9.22-2.52,14.94,14.94,0,0,1-5.62-6.25,18.21,18.21,0,0,1-1.73-7.75,16.22,16.22,0,0,1,2.55-9.25,14.94,14.94,0,0,1,6.29-5.5,18.66,18.66,0,0,1,7.73-1.68,16.94,16.94,0,0,1,9.23,2.48,14.8,14.8,0,0,1,5.67,6.18,18,18,0,0,1,1.75,7.77,16.24,16.24,0,0,1-2.6,9.21,15.1,15.1,0,0,1-6.33,5.61,18.52,18.52,0,0,1-7.72,1.7m0-3.94a11.34,11.34,0,0,0,10.71-6.82,14.65,14.65,0,0,0,1.2-5.76,13.15,13.15,0,0,0-1.77-6.84,11.09,11.09,0,0,0-4.46-4.36,12.22,12.22,0,0,0-5.68-1.38,11.32,11.32,0,0,0-10.72,7.05,15.3,15.3,0,0,0-1.11,5.53,13.23,13.23,0,0,0,1.77,6.91,11,11,0,0,0,4.43,4.32,12.26,12.26,0,0,0,5.63,1.35"/><path class="cls-3" d="M1087.06,765.59V734.24h10q5.67,0,8.41,2.37a7.92,7.92,0,0,1,2.75,6.31,7.55,7.55,0,0,1-2.13,5.58,9.9,9.9,0,0,1-5.49,2.7l8.77,14.39h-5.31l-8-14h-4.7v14Zm4.38-17.62h5q3.77,0,5.56-1.38a4.38,4.38,0,0,0,1.79-3.67,4.15,4.15,0,0,0-1.88-3.74,9.38,9.38,0,0,0-5.16-1.22h-5.36Z"/><polygon class="cls-3" points="1126.34 765.59 1126.34 738.09 1116.29 738.09 1116.29 734.24 1140.78 734.24 1140.78 738.09 1130.72 738.09 1130.72 765.59 1126.34 765.59"/><path class="cls-3" d="M1175.49,766.17a10.65,10.65,0,0,1-7.41-2.5,8.24,8.24,0,0,1-2.77-6.4,7.92,7.92,0,0,1,1.88-5.32,15.06,15.06,0,0,1,5.16-3.76,18,18,0,0,1-2.55-3.3,7.49,7.49,0,0,1-1-3.88,6.69,6.69,0,0,1,2.5-5.64,9.33,9.33,0,0,1,5.87-1.93,8.44,8.44,0,0,1,5.85,2,6.81,6.81,0,0,1,2.26,5.33,6.89,6.89,0,0,1-1.91,4.9,15.72,15.72,0,0,1-4.83,3.38l6.25,6.43,3.94-6.65h4.87l-6,9.35,7.17,7.39h-5.8l-3.9-4.12a13.55,13.55,0,0,1-4,3.46,11.32,11.32,0,0,1-5.52,1.24m.09-3.54a6.92,6.92,0,0,0,3.81-1,9.91,9.91,0,0,0,2.83-3l-7.44-7.79a10.56,10.56,0,0,0-3.67,2.44,5.35,5.35,0,0,0-1.37,3.85,4.84,4.84,0,0,0,1.79,4,6.2,6.2,0,0,0,4,1.47m.49-16.13c2.18-1,3.59-2,4.2-3a5,5,0,0,0,.93-2.66,3.88,3.88,0,0,0-4-4,4.17,4.17,0,0,0-3,1.15,4,4,0,0,0-1.19,3,5.27,5.27,0,0,0,.93,2.83,12.77,12.77,0,0,0,2.17,2.61"/><polygon class="cls-3" points="1222.12 765.59 1222.12 734.24 1242.23 734.24 1242.23 738.09 1226.51 738.09 1226.51 747.48 1241.3 747.48 1241.3 751.24 1226.51 751.24 1226.51 761.7 1242.89 761.7 1242.89 765.59 1222.12 765.59"/><polygon class="cls-3" points="1251.75 765.59 1262.95 748.99 1252.86 734.24 1258.21 734.24 1265.74 745.93 1273.18 734.24 1278.32 734.24 1268.31 749.07 1279.69 765.59 1274.16 765.59 1265.57 752.4 1257.15 765.59 1251.75 765.59"/><path class="cls-3" d="M1290.36,765.59V734.24h9.57q5.63,0,8.42,2.3a7.91,7.91,0,0,1,2.79,6.42q0,4.56-3.17,6.71a14.47,14.47,0,0,1-8.26,2.15h-5v13.77Zm4.39-17.49h4.65c2.57,0,4.43-.46,5.58-1.4a4.56,4.56,0,0,0,1.73-3.74,4.23,4.23,0,0,0-1.84-3.76,9.62,9.62,0,0,0-5.38-1.24h-4.74Z"/><path class="cls-3" d="M1337.7,766.39a16.59,16.59,0,0,1-9.21-2.52,15,15,0,0,1-5.62-6.25,18.21,18.21,0,0,1-1.73-7.75,16.22,16.22,0,0,1,2.55-9.25,14.94,14.94,0,0,1,6.29-5.5,18.65,18.65,0,0,1,7.72-1.68,16.93,16.93,0,0,1,9.24,2.48,14.8,14.8,0,0,1,5.67,6.18,18,18,0,0,1,1.75,7.77,16.31,16.31,0,0,1-2.59,9.21,15.18,15.18,0,0,1-6.34,5.61,18.53,18.53,0,0,1-7.73,1.7m0-3.94a11.34,11.34,0,0,0,10.72-6.82,14.65,14.65,0,0,0,1.2-5.76,13.15,13.15,0,0,0-1.77-6.84,11.07,11.07,0,0,0-4.45-4.36,12.3,12.3,0,0,0-5.7-1.38,11.31,11.31,0,0,0-10.71,7.05,15.3,15.3,0,0,0-1.11,5.53,13.23,13.23,0,0,0,1.77,6.91,11,11,0,0,0,4.43,4.32,12.25,12.25,0,0,0,5.62,1.35"/><path class="cls-3" d="M1366.36,765.59V734.24h10.05q5.67,0,8.41,2.37a7.92,7.92,0,0,1,2.75,6.31,7.55,7.55,0,0,1-2.13,5.58,9.9,9.9,0,0,1-5.49,2.7l8.77,14.39h-5.31l-8-14h-4.69v14Zm4.38-17.62h5q3.76,0,5.56-1.38a4.38,4.38,0,0,0,1.79-3.67,4.15,4.15,0,0,0-1.88-3.74,9.38,9.38,0,0,0-5.16-1.22h-5.36Z"/><polygon class="cls-3" points="1405.64 765.59 1405.64 738.09 1395.59 738.09 1395.59 734.24 1420.07 734.24 1420.07 738.09 1410.02 738.09 1410.02 765.59 1405.64 765.59"/><path class="cls-3" d="M1446.29,765.59V734.24h9.57c3.74,0,6.55.77,8.41,2.3a7.88,7.88,0,0,1,2.79,6.42q0,4.56-3.17,6.71a14.45,14.45,0,0,1-8.26,2.15h-5v13.77Zm4.38-17.49h4.65c2.57,0,4.43-.46,5.58-1.4a4.53,4.53,0,0,0,1.73-3.74,4.21,4.21,0,0,0-1.84-3.76,9.6,9.6,0,0,0-5.38-1.24h-4.74Z"/><polygon class="cls-3" points="1478.66 765.59 1478.66 734.24 1483.05 734.24 1483.05 761.7 1497.04 761.7 1497.04 765.59 1478.66 765.59"/><path class="cls-3" d="M1520.91,766.39a16.48,16.48,0,0,1-9.19-2.52,15,15,0,0,1-5.6-6.25,18.21,18.21,0,0,1-1.73-7.75,16.05,16.05,0,0,1,2.59-9.23,15.14,15.14,0,0,1,6.36-5.52,18.79,18.79,0,0,1,7.75-1.68,15.41,15.41,0,0,1,6.79,1.42,11.63,11.63,0,0,1,4.45,3.45l-3.45,2.66a8.59,8.59,0,0,0-3.26-2.63,10,10,0,0,0-4.53-1.05,11,11,0,0,0-8.66,3.7,14,14,0,0,0,0,18,11,11,0,0,0,8.52,3.54,10.83,10.83,0,0,0,4.83-1.06,9.31,9.31,0,0,0,3.59-3.1l3.49,2.39a14.09,14.09,0,0,1-4.82,4.1,15.16,15.16,0,0,1-7.13,1.57"/><polygon class="cls-3" points="1293.9 596.75 1318.16 596.75 1382.12 708.07 1347.55 708.07 1305.49 635.27 1263.44 708.07 1228.86 708.07 1293.9 596.75"/><polygon class="cls-3" points="1325.79 708.06 1285.19 708.06 1305.49 672.93 1325.79 708.06"/><path class="cls-3" d="M1492.09,658.07a37.81,37.81,0,0,0-8.88-12.21,29.91,29.91,0,0,0,5.18-9,31.7,31.7,0,0,0,1.83-10.86,32.67,32.67,0,0,0-2.65-13.1,33.68,33.68,0,0,0-17.83-17.84,32.35,32.35,0,0,0-12.91-2.61h-51.68a3.51,3.51,0,0,0-.59,0h-2.85V708.07h26.67v0h33a31.19,31.19,0,0,0,13-2.81,35.13,35.13,0,0,0,10.83-7.59,36.84,36.84,0,0,0,7.34-11.13,33.42,33.42,0,0,0,2.74-13.42,35.75,35.75,0,0,0-3.27-15m-60.26-42.65h16.72a12.46,12.46,0,0,1,4.74.89,11.34,11.34,0,0,1,3.75,2.45,11.44,11.44,0,0,1,2.38,12.5,11.3,11.3,0,0,1-2.45,3.57,10.43,10.43,0,0,1-3.78,2.33,14.06,14.06,0,0,1-4.89.82h-16.47Zm31.72,61.34a13.45,13.45,0,0,1-2.54,4.16,12.6,12.6,0,0,1-3.82,2.91,10.49,10.49,0,0,1-4.75,1.09h-20.61v-26h20.61a10.26,10.26,0,0,1,4.8,1.17,13.51,13.51,0,0,1,3.82,3,13.72,13.72,0,0,1,2.49,4.17,12.7,12.7,0,0,1,.91,4.66,13.2,13.2,0,0,1-.91,4.84"/><path class="cls-3" d="M1531.8,705.84c0-.09.09-.17.13-.26l.11-.3,1.54-4.08q-.9,2.32-1.78,4.64"/><path class="cls-3" d="M1615.24,704.64l-13-33.57-30.47-78.62h-26l-.93,2.4-.25.62v0l-43.47,112.56H1531c.26-.73.53-1.46.82-2.17a.06.06,0,0,1,0,0q.89-2.31,1.78-4.64l2.44-6.41,0-.08.54-1.38.92-2.44.57-1.53h41.33l3.2,8.55,3.79,10.14h30.17Zm-68.45-40.26c1-2.65,2-5.49,3-8.53s2-6.1,3-9.23,2-6.18,3-9.26,2-5.9,3-8.55l11.9,35.57Z"/><polygon class="cls-3" points="1711.39 592.45 1710.71 593.66 1709.63 595.58 1672.74 660.88 1672.74 708.07 1642.62 708.07 1642.62 660.72 1605.8 595.58 1604.82 593.85 1604.02 592.45 1637.73 592.45 1638.87 594.87 1657.82 635.1 1676.63 594.87 1677.75 592.45 1711.39 592.45"/><polygon class="cls-3" points="1180.09 592.73 1180.09 707.77 1151.12 707.77 1151.12 660.51 1113.88 660.51 1113.88 707.77 1084.9 707.77 1084.9 592.73 1113.88 592.73 1113.88 633.99 1151.12 633.99 1151.12 592.73 1180.09 592.73"/><polygon class="cls-3" points="914.23 618.41 914.23 640.05 954.97 640.05 954.97 662.14 914.23 662.14 914.23 682.07 967.92 682.07 967.92 707.77 885.24 707.77 885.24 592.73 967.92 592.73 967.92 618.41 914.23 618.41"/><path class="cls-3" d="M863.25,655.94V694.2a57.15,57.15,0,0,1-31.36,13.54q-3.15.25-6.16.25a58.94,58.94,0,0,1-10.88-1l-.71-.15-.75-.15-.56-.13-.94-.23a56.94,56.94,0,0,1-6.07-1.89l-1-.38c-.81-.32-1.6-.65-2.39-1l-.83-.38c-1-.49-2.06-1-3.06-1.55l-.51-.28c-.2-.1-.4-.22-.59-.33l-.34-.2-.69-.4-.92-.56-.61-.39-.34-.22-.7-.47-.25-.16-.62-.44-.39-.27-.47-.34-.48-.35-.41-.31-.65-.5-.07-.06c-.26-.19-.51-.4-.76-.6l-.32-.27c-.2-.16-.4-.32-.59-.49l-.26-.22c-.19-.16-.39-.33-.58-.51a4.59,4.59,0,0,1-.41-.36c-.27-.23-.54-.48-.8-.72l-.51-.48-.36-.35-.42-.42-.51-.5-.24-.25c-.19-.19-.38-.39-.56-.59l-.26-.27-.48-.52-.31-.34-.49-.57c-.23-.25-.45-.5-.66-.76l-.5-.61-.18-.21-.59-.75c-.18-.22-.35-.44-.52-.67s-.27-.35-.4-.53l-.52-.71-.06-.08-.5-.7-.27-.41-.32-.46-.39-.6-.18-.27-.4-.63c-.1-.16-.2-.32-.29-.49s-.25-.39-.36-.59a1.13,1.13,0,0,1-.12-.21c-.16-.26-.31-.51-.45-.77s-.35-.62-.52-.94c-.09-.16-.18-.32-.26-.49l-.33-.62c-.07-.13-.13-.27-.2-.4l-.32-.64c-.06-.11-.11-.22-.16-.33s-.23-.49-.35-.74l-.15-.33-.36-.81s0,0,0,0c-.15-.34-.3-.7-.44-1.05s-.29-.7-.42-1a.9.9,0,0,1-.08-.21c-.11-.28-.22-.56-.32-.84l-.12-.32-.3-.87c-.16-.45-.3-.89-.44-1.34-.1-.3-.19-.59-.28-.89l0-.11c-.1-.34-.2-.69-.29-1s-.19-.69-.28-1-.09-.38-.14-.57-.11-.47-.16-.7c-.18-.76-.33-1.52-.48-2.28a58.27,58.27,0,0,1-.81-6.09c-.06-.78-.1-1.57-.13-2.35a2.62,2.62,0,0,1,0-.28c0-.37,0-.74,0-1.12v-.79c0-1.68.08-3.35.22-5l.06-.71c0-.38.08-.75.13-1.12s.08-.72.13-1.07c0-.1,0-.21.05-.31s.07-.5.11-.75,0-.31.07-.46.1-.6.16-.89c0-.08,0-.16,0-.25.08-.38.15-.76.23-1.14,0-.17.07-.32.1-.49l.12-.53a.24.24,0,0,0,0-.08,57.38,57.38,0,0,1,91.19-32.46L859.36,608l-12.14,17.53L844.86,629a28.86,28.86,0,0,0-47.72,19.12q-.12,1.29-.12,2.61a30,30,0,0,0,.2,3.44,28.87,28.87,0,0,0,38.7,23.62v-21.8Z"/><path class="cls-3" d="M1066.71,671.52a32.88,32.88,0,0,1-3.37,14.94,34.22,34.22,0,0,1-9.25,11.42,43.09,43.09,0,0,1-13.82,7.3,54.91,54.91,0,0,1-17.08,2.58,48.4,48.4,0,0,1-16.92-3.07,64.78,64.78,0,0,1-15.51-8.27,40.21,40.21,0,0,1-5-4.28c-1.38-1.4-2.46-2.53-3.26-3.38l-.23-.22a.46.46,0,0,0-.14-.19.57.57,0,0,1-.16-.11.38.38,0,0,0-.14-.19s-1.76-2-2.94-3.31l.18-.18,2.33-2.22.28-.26,13-12.36h0l2.52-2.41.12-.12c1.78,1.66,5.31,5.07,6.38,6a41.32,41.32,0,0,0,4.53,3.48,37.56,37.56,0,0,0,7.57,4,21.87,21.87,0,0,0,7.86,1.43,20.6,20.6,0,0,0,6.4-.86,10.88,10.88,0,0,0,4.08-2.29,8.06,8.06,0,0,0,2.14-3.29,12.31,12.31,0,0,0,.63-4,5.84,5.84,0,0,0-1.76-4.16,18.12,18.12,0,0,0-4.3-3.25,37.14,37.14,0,0,0-5.32-2.44q-2.78-1-4.79-1.68a108.45,108.45,0,0,1-15.73-6.77,48.74,48.74,0,0,1-11.24-8.08,29.08,29.08,0,0,1-9-21.74,27.36,27.36,0,0,1,10.82-22.38,38.39,38.39,0,0,1,12.54-6.25,57,57,0,0,1,16.41-2.2,54.7,54.7,0,0,1,13.06,1.53,49.68,49.68,0,0,1,12.32,4.91c1.7,1,3.31,2,4.84,3.11a49.71,49.71,0,0,1,4,3.11c.82.7,3.59,3.28,5.36,5l-.48.51-3.07,3.27L1049,626.43l-2.25,2.4-.38.41c-1.31-1.26-3.24-3.21-3.73-3.64L1042,625c-1-.86-2.11-1.73-3.33-2.63a32.35,32.35,0,0,0-3.93-2.43,27.65,27.65,0,0,0-4.42-1.8,16.17,16.17,0,0,0-4.72-.71,25.27,25.27,0,0,0-4.64.41,13.31,13.31,0,0,0-3.82,1.31,7.33,7.33,0,0,0-2.63,2.36,6.92,6.92,0,0,0,.08,7.2,10.39,10.39,0,0,0,3.15,2.84,28.82,28.82,0,0,0,5.2,2.47c2.07.78,4.48,1.61,7.23,2.51q7.93,2.63,14.64,5.51a49.11,49.11,0,0,1,11.57,6.81,28,28,0,0,1,7.6,9.4,29.4,29.4,0,0,1,2.74,13.26"/></svg>