<svg xmlns="http://www.w3.org/2000/svg" id="Layer_1" data-name="Layer 1" viewBox="374.19 297.11 1171.74 821.8"><defs><style>.cls-1{fill:#eaaa42;}</style></defs><path class="cls-1" d="M1102.93,735.38c-2.45,9.81,8.25,26,28.63,43.24a10.15,10.15,0,0,1-9,17.59l-.28-.08a.45.45,0,0,1-.18,0c-30.7-7.68-103.63-30.57-128.76-78.5-29.77-56.76,3-119.92,40.89-193,35.08-67.61,74.53-143.66,69-227.52q7.93,3.06,15.68,6.64c3.16,84.85-36.06,160.49-71,227.93-25.39,48.93-48.32,93.13-50.44,132.38-.89,16.37,1.84,31.87,9.5,46.48a75,75,0,0,0,9.76,14.15c10.65,12.43,25.3,22.62,40.65,30.82a261.53,261.53,0,0,0,26.58,12.26c8,3.16,15.66,5.82,22.4,8-1.1-1.17-2.15-2.37-3.19-3.6-.8-.94-1.59-1.89-2.35-2.86-1.38-1.71-2.68-3.44-3.88-5.21-7.23-10.47-11.44-21.68-8.79-32.33,3.22-12.87,15.66-22,37-27.09l2.65-.61c67.88-14.74,124.72-31.34,151.18-43.7q-3.06,9.88-6.79,19.51c-43.57,17.22-114.94,33.48-141.14,39.18-11.52,2.5-25.74,7.38-28,16.44"/><path class="cls-1" d="M1154,675c59.78-21.66,104.41-47.42,136.23-70.2-.74,7-1.73,14-3,20.92-31.64,21.22-73.72,44-128,63.68A235.64,235.64,0,0,0,1125,704.56c-22.86,12.74-29.09,24.18-29.6,32.43-1.15,18.24,24.62,35.52,34.65,40.63l-3.6,8.53-.1.25-2.25,5.32a2.26,2.26,0,0,0-.35-.13c-3.27-1.15-24.62-9-39.92-23.9-.68-.67-1.35-1.36-2-2.05a55.11,55.11,0,0,1-6.59-8.19,42.47,42.47,0,0,1-7.07-19.05q-1.76-16.93,11.21-34.35,15-20.22,49.67-40.83c76.56-45.46,125.82-81.49,161.24-120.66.71,7,1.19,14,1.4,20.94-35.55,36.29-83.73,70.68-154.83,112.89-13.23,7.84-24.08,15.58-32.48,23.06,12-8.65,28.47-16.77,49.57-24.41"/><path class="cls-1" d="M1279.49,488.17c-30.6,72.42-59.25,94.38-116.6,138.38-14.23,10.9-30.36,23.29-48.77,38.17-16.93,13.66-28.5,26.82-34.71,39.33-4.6,9.24-6.23,18.16-4.87,26.66,2.17,13.71,11.82,24.9,22.29,33.27a113.72,113.72,0,0,0,10.65,7.54c1.45.91,2.91,1.76,4.29,2.57a127.13,127.13,0,0,0,15.14,7.46l.2.08-.3.92-3,9,0,.17,0,.06-1.46,4.31a.45.45,0,0,1-.17,0A165.33,165.33,0,0,1,1099.2,787c-1.58-.77-3.22-1.58-4.88-2.45-12.53-6.59-26.76-16.14-37-29.11-.28-.36-.56-.72-.82-1.07A63.86,63.86,0,0,1,1044.63,730a51.2,51.2,0,0,1-1.05-5.87c-3.5-27.2,12.24-57,46.81-88.64,100.56-92.05,140.24-154.11,145.66-235.59q7.13,9.89,13.43,20.37c-10.24,76.56-52.58,138.46-148.72,226.51-30.82,28.22-44.89,53.65-42,75.69,1-22.55,16.32-45.94,45.69-69.66,18.56-15,34.78-27.43,49.08-38.41,60.72-46.58,86.72-66.52,118.34-148.34,2.83,7.23,5.36,14.58,7.58,22.12"/><path class="cls-1" d="M1127.34,776.8l.62.1-1.49,9.25-.25,1.58-.69,4.32c-.15,0-.33,0-.56-.08s-.72-.13-1.25-.2a216.15,216.15,0,0,1-29.39-7.23c-26.84-8.61-63.36-26-77.43-59.19-.1-.26-.21-.49-.28-.74a71.67,71.67,0,0,1-5.44-26.41c-.56-24.85,10.47-53,33-84,91-125.1,134.45-190,121.22-283.86,5.77,4,11.39,8.22,16.83,12.64,8,96.43-42.42,165.78-125.64,280.24-18.92,26-29,49.33-30,69.61q5.7-28.38,33.65-61.29,10.08-11.84,20-23.29c72.06-83.83,130.26-151.55,118.87-250.53,5.74,5.41,11.29,11.08,16.57,16.95,3.12,95.84-56.41,165.12-123.83,243.57q-9.84,11.41-19.89,23.21c-27.07,31.87-36.74,59.29-28.75,81.54.13.38.28.76.44,1.12,5.59,14.45,18.05,25.33,31.68,33.33a154.13,154.13,0,0,0,25.44,11.74c2.35.85,4.62,1.64,6.77,2.33a199,199,0,0,0,19.86,5.28"/><path class="cls-1" d="M1127.34,776.8a.18.18,0,0,0,.11,0l-.54,4.72-.1,1-.44,3.85-.15,1.33-.49,4.34-.2,0c-.15,0-.33,0-.56-.08s-.77-.08-1.28-.15A235.36,235.36,0,0,1,1099.2,787c-30.28-7.58-78-25.48-96.63-65.22Q990.46,696,997.36,664c4.24-19.58,13.85-40.83,28.78-63.58,86.65-131.95,116.19-209.37,104.57-291,5.57,2.83,11,5.85,16.37,9.06,7.79,81.41-24,162.16-108.12,290.3-22.62,34.47-32,64.45-27.78,89.4a64.13,64.13,0,0,0,5.26,17c8.12,17.34,23.36,30,40,39.15a175.43,175.43,0,0,0,25.4,11.28c7.56,2.71,14.79,4.8,21.2,6.41,3.11.79,6,1.48,8.7,2,8.79,1.87,14.71,2.61,15.58,2.71"/><path class="cls-1" d="M937,614.67c-34.83,67.14-74,142.57-69.08,225.69q-7.95-3.79-15.65-8.07c-2.09-83.55,36.57-158.09,71.12-224.67,25.38-48.92,48.31-93.13,50.43-132.37.9-16.37-1.84-31.88-9.5-46.48a75.29,75.29,0,0,0-9.75-14.15c-10.62-12.41-25.31-22.63-40.66-30.82a259.54,259.54,0,0,0-26.58-12.26c-8-3.19-15.65-5.85-22.39-8,1.09,1.17,2.14,2.37,3.19,3.6.82,1,1.63,1.94,2.4,2.94,1.35,1.68,2.63,3.39,3.86,5.13,7.2,10.47,11.41,21.68,8.75,32.33-3.21,12.87-15.62,22-36.9,27.07-.89.23-1.78.43-2.7.64-50.46,10.95-94.82,22.93-125.1,33.45q3.6-9.58,7.86-18.85c41.75-13.4,92.72-25,114-29.57,11.54-2.5,25.74-7.38,28-16.44,2.46-9.81-8.27-26-28.63-43.24a10.15,10.15,0,0,1,9-17.59l.28.07a1,1,0,0,1,.18.05c30.69,7.69,103.63,30.55,128.75,78.5,29.81,56.77-3,119.92-40.88,193"/><path class="cls-1" d="M891.75,435.18q-15,20.19-49.67,40.83c-64,38-108.89,69.38-142.6,101.58-.13-7.12,0-14.24.44-21.29,33.14-29.47,76-58.84,134.34-93.47q19.85-11.79,32.49-23.05c-12,8.65-28.48,16.77-49.54,24.41-46.3,16.77-83.54,36-112.77,54.47q1.95-10.65,4.72-21A616.46,616.46,0,0,1,812,449.79a234.56,234.56,0,0,0,34.24-15.17c22.81-12.75,29-24.16,29.52-32.38,1.15-18.24-24.61-35.52-34.65-40.66l3.6-8.53.11-.22,2.24-5.32a3.1,3.1,0,0,0,.36.13c3.27,1.15,24.62,9,39.91,23.9.69.67,1.33,1.33,2,2a58.65,58.65,0,0,1,6.64,8.3,42.31,42.31,0,0,1,7,19q1.75,16.92-11.21,34.37"/><path class="cls-1" d="M880.76,503.74c-91.7,84-132.76,143-143.41,214.51q-6.2-11-11.44-22.65c15.35-66.3,58.3-124.21,144.51-203.14,30.8-28.22,44.89-53.65,41.93-75.69-1,22.54-16.32,45.94-45.68,69.66-18.57,15-34.78,27.42-49.08,38.41-54.21,41.6-80.75,61.95-108.3,124q-3.18-12-5.34-24.41c26.53-52.12,54.68-73.7,104.32-111.8,14.22-10.93,30.36-23.29,48.77-38.18,16.93-13.66,28.5-26.81,34.71-39.32,4.59-9.25,6.22-18.16,4.87-26.66-2.17-13.71-11.79-24.9-22.26-33.3a111.74,111.74,0,0,0-10.71-7.48c-1.48-.95-2.93-1.82-4.34-2.64a129.09,129.09,0,0,0-15.06-7.42,1.31,1.31,0,0,0-.21-.08l.31-.92,3-9,.08-.18v0l1.45-4.31a.55.55,0,0,1,.18,0A158.44,158.44,0,0,1,872,352.24q2.32,1.11,4.82,2.42c12.54,6.59,26.81,16.14,37.11,29.14.28.33.56.69.81,1.05a64.14,64.14,0,0,1,11.83,24.38,55.31,55.31,0,0,1,1,5.75c3.57,27.22-12.16,57-46.79,88.76"/><path class="cls-1" d="M927,525c-87.9,120.89-131.46,185.57-122.37,274.46-5.62-4.72-11.09-9.68-16.35-14.83C785.1,694.09,834.75,625.81,914.58,516c18.92-26.05,28.95-49.34,30-69.61q-5.7,28.38-33.66,61.29Q900.86,519.52,891,531c-68.26,79.42-124.08,144.36-120.1,235.09q-8-9.27-15.19-19.23C759.9,660,816.16,594.52,879.36,521c6.56-7.64,13.2-15.35,19.89-23.21C926.32,465.9,936,438.5,928,416.26c-.15-.44-.3-.87-.48-1.28-5.62-14.33-18-25.15-31.62-33.15a154.63,154.63,0,0,0-25.43-11.74c-2.38-.9-4.65-1.66-6.84-2.35a174.23,174.23,0,0,0-20.46-5.42l1.48-9.27.26-1.53.69-4.34c.15,0,.33,0,.56.08l1.28.2a214.61,214.61,0,0,1,29.31,7.2c26.84,8.61,63.41,26,77.48,59.22.1.26.2.49.28.74A72.09,72.09,0,0,1,960,441c.58,24.88-10.45,53-33,84"/><path class="cls-1" d="M973.79,475.25C969.55,494.83,960,516.08,945,538.83,860.06,668.2,830,745.16,839.86,825c-5.57-3.42-11-7-16.35-10.85-5.49-79.24,26.82-159,108.69-283.76C954.85,495.93,964.14,465.92,960,441a64.15,64.15,0,0,0-5.26-17c-8.15-17.34-23.39-30-40-39.12a175.13,175.13,0,0,0-25.41-11.32c-7.56-2.68-14.78-4.8-21.19-6.38-3.14-.82-6.11-1.48-8.79-2-9.29-2-15.37-2.71-15.6-2.74l.54-4.69.1-1,.43-3.86.16-1.3.48-4.37c.05,0,.13,0,.21,0s.33,0,.56.08.76.07,1.28.15A233.34,233.34,0,0,1,872,352.24c30.28,7.58,78,25.48,96.62,65.22q12.1,25.82,5.21,57.79"/><rect class="cls-1" x="595.95" y="1078.91" width="5.45" height="38.97"/><polygon class="cls-1" points="618.35 1117.88 618.35 1078.91 626.83 1078.91 638.49 1108.85 638.6 1108.85 650.11 1078.91 658.58 1078.91 658.58 1117.88 653.13 1117.88 653.13 1085.3 653.02 1085.3 640.09 1117.88 636.62 1117.88 623.74 1085.3 623.63 1085.3 623.63 1117.88 618.35 1117.88"/><path class="cls-1" d="M675.53,1117.88v-39h11.89q7,0,10.46,2.87a9.76,9.76,0,0,1,3.47,8q0,5.65-3.94,8.33t-10.26,2.67H681v17.12Zm5.45-21.74h5.78c3.19,0,5.51-.58,6.94-1.73a5.68,5.68,0,0,0,2.14-4.65,5.25,5.25,0,0,0-2.28-4.68q-2.28-1.55-6.69-1.54H681Z"/><path class="cls-1" d="M734.37,1118.87a20.54,20.54,0,0,1-11.45-3.14,18.48,18.48,0,0,1-7-7.76,22.61,22.61,0,0,1-2.14-9.63,20.23,20.23,0,0,1,3.16-11.5,18.38,18.38,0,0,1,7.82-6.82,23.05,23.05,0,0,1,9.6-2.1,21.07,21.07,0,0,1,11.48,3.08,18.49,18.49,0,0,1,7,7.68,22.36,22.36,0,0,1,2.18,9.66,20.17,20.17,0,0,1-3.23,11.45,18.76,18.76,0,0,1-7.87,7,23,23,0,0,1-9.6,2.12m0-4.9a14.1,14.1,0,0,0,13.32-8.47,18.31,18.31,0,0,0,1.49-7.16,16.32,16.32,0,0,0-2.21-8.5,13.68,13.68,0,0,0-5.53-5.42,15.27,15.27,0,0,0-7.07-1.71,14.1,14.1,0,0,0-13.32,8.75,19.09,19.09,0,0,0-1.37,6.88,16.41,16.41,0,0,0,2.2,8.59,13.51,13.51,0,0,0,5.5,5.36,15.2,15.2,0,0,0,7,1.68"/><path class="cls-1" d="M770,1117.88v-39h12.49q7,0,10.46,2.95a9.82,9.82,0,0,1,3.41,7.84,9.39,9.39,0,0,1-2.64,6.94,12.26,12.26,0,0,1-6.82,3.35l10.89,17.89h-6.6l-9.91-17.34h-5.83v17.34Zm5.45-21.91h6.27c3.12,0,5.42-.56,6.91-1.7a5.45,5.45,0,0,0,2.23-4.57,5.15,5.15,0,0,0-2.34-4.65,11.71,11.71,0,0,0-6.41-1.51h-6.66Z"/><polygon class="cls-1" points="818.8 1117.88 818.8 1083.7 806.31 1083.7 806.31 1078.91 836.74 1078.91 836.74 1083.7 824.25 1083.7 824.25 1117.88 818.8 1117.88"/><path class="cls-1" d="M879.89,1118.6q-5.77,0-9.22-3.11a10.28,10.28,0,0,1-3.44-8,9.85,9.85,0,0,1,2.34-6.6,19,19,0,0,1,6.41-4.68,22.14,22.14,0,0,1-3.16-4.1,9.25,9.25,0,0,1-1.29-4.82,8.28,8.28,0,0,1,3.11-7,11.58,11.58,0,0,1,7.29-2.4,10.49,10.49,0,0,1,7.26,2.51,9.11,9.11,0,0,1,.44,12.71,19.51,19.51,0,0,1-6,4.21l7.75,8,4.9-8.25h6.06l-7.49,11.61,8.92,9.19h-7.21l-4.85-5.12a16.74,16.74,0,0,1-5,4.3,14.08,14.08,0,0,1-6.86,1.54m.11-4.41a8.58,8.58,0,0,0,4.74-1.24,12.26,12.26,0,0,0,3.52-3.66l-9.25-9.68a13.17,13.17,0,0,0-4.57,3,6.72,6.72,0,0,0-1.7,4.78,6.05,6.05,0,0,0,2.23,5,7.74,7.74,0,0,0,5,1.81m.61-20c2.71-1.25,4.46-2.48,5.23-3.69a6.28,6.28,0,0,0,1.15-3.3,4.84,4.84,0,0,0-5-5,5.15,5.15,0,0,0-3.74,1.43,5,5,0,0,0-1.48,3.74,6.55,6.55,0,0,0,1.15,3.52,16.32,16.32,0,0,0,2.7,3.25"/><polygon class="cls-1" points="937.85 1117.88 937.85 1078.91 962.84 1078.91 962.84 1083.7 943.3 1083.7 943.3 1095.37 961.68 1095.37 961.68 1100.05 943.3 1100.05 943.3 1113.04 963.66 1113.04 963.66 1117.88 937.85 1117.88"/><polygon class="cls-1" points="974.67 1117.88 988.59 1097.24 976.04 1078.91 982.7 1078.91 992.06 1093.44 1001.31 1078.91 1007.69 1078.91 995.25 1097.35 1009.4 1117.88 1002.52 1117.88 991.84 1101.48 981.38 1117.88 974.67 1117.88"/><path class="cls-1" d="M1022.66,1117.88v-39h11.89q7,0,10.46,2.87a9.76,9.76,0,0,1,3.47,8q0,5.65-3.94,8.33t-10.26,2.67h-6.17v17.12Zm5.45-21.74h5.78q4.78,0,6.93-1.73a5.66,5.66,0,0,0,2.15-4.65,5.25,5.25,0,0,0-2.28-4.68q-2.3-1.55-6.69-1.54h-5.89Z"/><path class="cls-1" d="M1081.5,1118.87a20.52,20.52,0,0,1-11.45-3.14,18.48,18.48,0,0,1-7-7.76,22.62,22.62,0,0,1-2.15-9.63,20.23,20.23,0,0,1,3.17-11.5,18.42,18.42,0,0,1,7.81-6.82,23.1,23.1,0,0,1,9.61-2.1A21,21,0,0,1,1093,1081a18.45,18.45,0,0,1,7,7.68,22.35,22.35,0,0,1,2.17,9.66,20.16,20.16,0,0,1-3.22,11.45,18.82,18.82,0,0,1-7.87,7,23,23,0,0,1-9.6,2.12m0-4.9a14.13,14.13,0,0,0,13.32-8.47,18.3,18.3,0,0,0,1.48-7.16,16.31,16.31,0,0,0-2.2-8.5,13.68,13.68,0,0,0-5.53-5.42,15.27,15.27,0,0,0-7.07-1.71,14.1,14.1,0,0,0-13.32,8.75,19.12,19.12,0,0,0-1.38,6.88,16.51,16.51,0,0,0,2.2,8.59,13.59,13.59,0,0,0,5.51,5.36,15.2,15.2,0,0,0,7,1.68"/><path class="cls-1" d="M1117.11,1117.88v-39h12.49q7.05,0,10.46,2.95a9.85,9.85,0,0,1,3.41,7.84,9.39,9.39,0,0,1-2.64,6.94A12.26,12.26,0,0,1,1134,1100l10.9,17.89h-6.6l-9.91-17.34h-5.83v17.34Zm5.45-21.91h6.27c3.12,0,5.42-.56,6.91-1.7a5.48,5.48,0,0,0,2.23-4.57,5.15,5.15,0,0,0-2.34-4.65,11.71,11.71,0,0,0-6.41-1.51h-6.66Z"/><polygon class="cls-1" points="1165.93 1117.88 1165.93 1083.7 1153.43 1083.7 1153.43 1078.91 1183.87 1078.91 1183.87 1083.7 1171.38 1083.7 1171.38 1117.88 1165.93 1117.88"/><path class="cls-1" d="M1216.45,1117.88v-39h11.89q7,0,10.46,2.87a9.76,9.76,0,0,1,3.47,8q0,5.65-3.94,8.33c-2.62,1.78-6,2.67-10.26,2.67h-6.17v17.12Zm5.45-21.74h5.78q4.78,0,6.93-1.73a5.66,5.66,0,0,0,2.15-4.65,5.25,5.25,0,0,0-2.28-4.68q-2.3-1.55-6.69-1.54h-5.89Z"/><polygon class="cls-1" points="1256.68 1117.88 1256.68 1078.91 1262.13 1078.91 1262.13 1113.04 1279.53 1113.04 1279.53 1117.88 1256.68 1117.88"/><path class="cls-1" d="M1309.19,1118.87a20.47,20.47,0,0,1-11.42-3.13,18.71,18.71,0,0,1-7-7.76,22.7,22.7,0,0,1-2.15-9.64,20,20,0,0,1,3.22-11.47,18.78,18.78,0,0,1,7.9-6.86,23.44,23.44,0,0,1,9.63-2.09,19.34,19.34,0,0,1,8.45,1.76,14.59,14.59,0,0,1,5.53,4.3l-4.29,3.3a10.79,10.79,0,0,0-4-3.27,12.43,12.43,0,0,0-5.64-1.3,13.61,13.61,0,0,0-10.76,4.6,17.42,17.42,0,0,0,0,22.31,13.71,13.71,0,0,0,10.6,4.41,13.48,13.48,0,0,0,6-1.32,11.61,11.61,0,0,0,4.45-3.85l4.35,3a17.45,17.45,0,0,1-6,5.09,18.73,18.73,0,0,1-8.86,1.95"/><polygon class="cls-1" points="1027.06 908.04 1057.2 908.04 1136.7 1046.38 1093.73 1046.38 1041.46 955.91 989.19 1046.38 946.22 1046.38 1027.06 908.04"/><polygon class="cls-1" points="1066.69 1046.38 1016.23 1046.38 1041.46 1002.71 1066.69 1046.38"/><path class="cls-1" d="M1273.37,984.25a47.09,47.09,0,0,0-11-15.18,37.15,37.15,0,0,0,6.43-11.18,39.52,39.52,0,0,0,2.28-13.5,40.69,40.69,0,0,0-3.29-16.28,41.75,41.75,0,0,0-22.17-22.17,40.17,40.17,0,0,0-16-3.25h-64.23a4,4,0,0,0-.73.07h-3.54v143.63h33.15v0h41a38.85,38.85,0,0,0,16.2-3.49,43.39,43.39,0,0,0,13.46-9.43,45.64,45.64,0,0,0,9.12-13.83,41.45,41.45,0,0,0,3.4-16.69,44.33,44.33,0,0,0-4.06-18.67m-74.89-53h20.77a15.53,15.53,0,0,1,5.9,1.11,14.35,14.35,0,0,1,4.67,3,14,14,0,0,1,3,4.47,13.64,13.64,0,0,1,1.08,5.41,14,14,0,0,1-1.12,5.66,14.23,14.23,0,0,1-3,4.44,13,13,0,0,1-4.71,2.89,17.27,17.27,0,0,1-6.07,1h-20.47Zm39.42,76.23a16.61,16.61,0,0,1-3.16,5.17,15.46,15.46,0,0,1-4.75,3.63,13.08,13.08,0,0,1-5.9,1.35h-25.61V985.31h25.61a12.73,12.73,0,0,1,6,1.46,16.83,16.83,0,0,1,4.75,3.71,17.31,17.31,0,0,1,3.09,5.19,15.73,15.73,0,0,1,1.13,5.79,16.28,16.28,0,0,1-1.13,6"/><path class="cls-1" d="M1322.73,1043.62l.16-.33.13-.37,1.92-5.06c-.75,1.92-1.48,3.84-2.21,5.76"/><path class="cls-1" d="M1426.43,1042.12l-16.15-41.72-37.88-97.71h-32.28l-1.15,3-.31.78v0l-54,139.89h37c.33-.9.66-1.81,1-2.69,0,0,0,0,0-.05.73-1.92,1.46-3.84,2.21-5.76l3-8,0-.09.67-1.72,1.14-3,.71-1.9h51.37l4,10.63,4.71,12.59h37.5Zm-85.07-50c1.24-3.29,2.47-6.82,3.73-10.6s2.5-7.58,3.71-11.47,2.48-7.69,3.74-11.51,2.5-7.34,3.73-10.63l14.79,44.21Z"/><polygon class="cls-1" points="1545.93 902.69 1545.09 904.2 1543.74 906.58 1497.89 987.74 1497.89 1046.38 1460.46 1046.38 1460.46 987.54 1414.7 906.58 1413.48 904.44 1412.49 902.69 1454.38 902.69 1455.8 905.7 1479.35 955.7 1502.73 905.7 1504.12 902.69 1545.93 902.69"/><polygon class="cls-1" points="885.61 903.04 885.61 1046.01 849.59 1046.01 849.59 987.28 803.32 987.28 803.32 1046.01 767.3 1046.01 767.3 903.04 803.32 903.04 803.32 954.32 849.59 954.32 849.59 903.04 885.61 903.04"/><polygon class="cls-1" points="555.18 934.96 555.18 961.85 605.82 961.85 605.82 989.31 555.18 989.31 555.18 1014.08 621.92 1014.08 621.92 1046.02 519.15 1046.02 519.15 903.04 621.92 903.04 621.92 934.96 555.18 934.96"/><path class="cls-1" d="M491.82,981.6v47.55a71,71,0,0,1-39,16.82c-2.6.22-5.15.32-7.65.32a72.41,72.41,0,0,1-13.52-1.25l-.88-.17-.93-.2-.7-.16-1.17-.28a70.19,70.19,0,0,1-7.54-2.35l-1.24-.47c-1-.4-2-.81-3-1.25l-1-.47c-1.29-.6-2.56-1.25-3.8-1.92l-.64-.35L410,1037l-.42-.25c-.29-.16-.57-.33-.85-.5l-1.15-.7-.76-.48-.42-.27-.88-.59-.3-.2c-.26-.18-.52-.35-.77-.54l-.48-.33-.59-.43-.6-.44-.51-.38-.81-.63-.08-.06-.95-.76-.4-.32-.73-.61-.32-.28-.73-.63-.5-.45c-.34-.29-.67-.6-1-.9l-.63-.6-.45-.43c-.18-.17-.36-.34-.53-.52l-.63-.62-.3-.31c-.24-.24-.47-.49-.7-.74s-.22-.22-.32-.34l-.6-.64-.38-.43-.62-.7c-.28-.31-.55-.63-.81-.94l-.63-.76L390,1020l-.73-.93c-.22-.28-.44-.55-.65-.83s-.34-.44-.5-.67-.43-.58-.64-.88l-.08-.1-.61-.87-.34-.5-.4-.58-.49-.74-.22-.35-.49-.78c-.13-.2-.25-.39-.37-.6l-.45-.74a2.15,2.15,0,0,1-.14-.26c-.2-.31-.38-.64-.56-1s-.44-.77-.65-1.16c-.11-.2-.22-.4-.32-.61s-.28-.51-.41-.77-.17-.33-.25-.5l-.4-.79a3.89,3.89,0,0,1-.19-.42c-.15-.3-.3-.6-.44-.91-.06-.14-.13-.27-.19-.41-.15-.33-.3-.66-.45-1a.06.06,0,0,1,0,0c-.19-.43-.38-.86-.56-1.3s-.35-.87-.52-1.31c0-.09-.07-.18-.1-.26-.13-.34-.27-.69-.4-1-.05-.13-.1-.26-.14-.4-.13-.36-.26-.72-.38-1.08-.19-.56-.37-1.11-.55-1.67-.12-.37-.23-.74-.34-1.1a.74.74,0,0,0,0-.14c-.12-.43-.25-.86-.36-1.29s-.24-.86-.34-1.29c-.07-.23-.12-.47-.18-.71s-.14-.58-.2-.87c-.22-.93-.42-1.88-.6-2.83a72.15,72.15,0,0,1-1-7.57c-.08-1-.13-1.94-.17-2.92,0-.11,0-.23,0-.34,0-.46,0-.93,0-1.39s0-.66,0-1q0-3.15.27-6.21c0-.3.05-.59.08-.88.05-.47.1-.93.16-1.4s.11-.89.17-1.33c0-.12,0-.25.05-.38,0-.31.09-.62.14-.93s.07-.38.09-.57c.06-.37.13-.74.2-1.11,0-.1,0-.2,0-.31.09-.47.19-1,.29-1.42l.12-.6.15-.66a.44.44,0,0,0,0-.1,71.3,71.3,0,0,1,113.33-40.34L487,922,471.9,943.81,469,948.06a35.86,35.86,0,0,0-59.31,23.76c-.1,1.06-.14,2.15-.14,3.25a35.48,35.48,0,0,0,.25,4.27,35.89,35.89,0,0,0,48.09,29.36V981.6Z"/><path class="cls-1" d="M744.69,1001a40.79,40.79,0,0,1-4.19,18.57,42.62,42.62,0,0,1-11.5,14.2,53.78,53.78,0,0,1-17.17,9.07,68.2,68.2,0,0,1-21.22,3.21,60.16,60.16,0,0,1-21-3.82,80.61,80.61,0,0,1-19.27-10.28,48.38,48.38,0,0,1-6.28-5.32q-2.57-2.61-4-4.2l-.28-.28c-.07-.12-.12-.2-.19-.23a.73.73,0,0,1-.18-.14.46.46,0,0,0-.19-.23s-2.18-2.45-3.65-4.12l.23-.22,2.89-2.75.35-.34,16.1-15.35h0l3.14-3,.15-.15c2.22,2.06,6.6,6.3,7.93,7.47a51.83,51.83,0,0,0,5.63,4.33,47.08,47.08,0,0,0,9.4,4.94,27.24,27.24,0,0,0,9.77,1.76,25.56,25.56,0,0,0,8-1.06,13.61,13.61,0,0,0,5.07-2.84,10.14,10.14,0,0,0,2.66-4.1,15.06,15.06,0,0,0,.79-4.92,7.24,7.24,0,0,0-2.19-5.16,22.72,22.72,0,0,0-5.35-4,44.38,44.38,0,0,0-6.61-3q-3.45-1.26-6-2.1a135.62,135.62,0,0,1-19.55-8.41,60.57,60.57,0,0,1-14-10,36.11,36.11,0,0,1-11.17-27,34.1,34.1,0,0,1,13.45-27.81,47.56,47.56,0,0,1,15.59-7.76A70.65,70.65,0,0,1,692.19,903a68,68,0,0,1,16.24,1.9,62.18,62.18,0,0,1,15.31,6.1c2.11,1.24,4.12,2.53,6,3.86s3.55,2.63,5,3.87c1,.88,4.46,4.09,6.66,6.26l-.6.64L737,929.74l-14.25,15.18-2.8,3-.47.51c-1.63-1.56-4-4-4.64-4.51l-.84-.75c-1.24-1-2.62-2.13-4.14-3.26a37.47,37.47,0,0,0-4.89-3,33,33,0,0,0-5.49-2.23,19.9,19.9,0,0,0-5.87-.89,31,31,0,0,0-5.76.51,16.49,16.49,0,0,0-4.75,1.63,9.07,9.07,0,0,0-3.26,2.93,8.59,8.59,0,0,0,.09,8.94,13,13,0,0,0,3.91,3.54,36.38,36.38,0,0,0,6.47,3.07q3.87,1.44,9,3.12,9.86,3.25,18.19,6.84a61,61,0,0,1,14.38,8.47,35,35,0,0,1,9.45,11.68q3.39,6.79,3.4,16.48"/></svg>