<?xml version="1.0" encoding="UTF-8"?>
<svg data-bbox="129.587 195.35 1624.753 700.61" viewBox="0 0 1920 1080" xmlns="http://www.w3.org/2000/svg" data-type="color">
    <g>
        <path d="M649.88 760.59c-3.16 12.65 10.64 33.49 36.91 55.75 4.68 3.95 5.96 10.51 3.2 15.97-2.31 4.44-6.82 7.11-11.63 7.11-1.08 0-2.14-.13-3.23-.39-.13-.04-.23-.07-.36-.1-.07 0-.13-.03-.23-.07-39.58-9.91-133.62-39.42-166.03-101.22-38.39-73.2 3.82-154.63 52.72-248.9 45.24-87.19 96.12-185.25 88.94-293.39 6.82 2.63 13.57 5.5 20.22 8.56 4.08 109.42-46.49 206.95-91.61 293.92-32.73 63.09-62.3 120.09-65.03 170.7-1.15 21.11 2.37 41.09 12.25 59.93 3.39 6.45 7.64 12.54 12.58 18.24 13.73 16.03 32.63 29.17 52.42 39.74 11.43 6.12 23.12 11.36 34.28 15.8 10.34 4.08 20.18 7.51 28.88 10.28a139.25 139.25 0 0 1-4.12-4.64c-1.02-1.22-2.04-2.44-3.03-3.69a106.17 106.17 0 0 1-5-6.72c-9.32-13.5-14.75-27.96-11.33-41.69 4.15-16.59 20.19-28.35 47.68-34.94 1.12-.26 2.27-.53 3.43-.79 87.52-19 160.82-40.4 194.93-56.34-2.63 8.5-5.53 16.89-8.76 25.16-56.18 22.19-148.21 43.17-181.99 50.51-14.85 3.23-33.19 9.52-36.09 21.21" fill="#f6a71c" data-color="1"/>
        <path d="M715.71 682.78c77.09-27.92 134.64-61.15 175.67-90.52a343.23 343.23 0 0 1-3.89 26.97c-40.8 27.36-95.06 56.77-165.07 82.12-18.34 6.65-32.77 13.2-44.06 19.49-29.47 16.43-37.5 31.18-38.17 41.82-1.48 23.51 31.74 45.8 44.69 52.39l-4.64 11-.13.33-2.9 6.85c-.1-.03-.23-.1-.46-.17-4.21-1.48-31.74-11.66-51.47-30.82-.89-.86-1.74-1.75-2.57-2.64-3.16-3.26-6.03-6.78-8.5-10.57-4.81-7.28-8.17-15.44-9.12-24.57-1.51-14.55 3.33-29.34 14.46-44.29 12.88-17.39 34.28-34.97 64.05-52.65 98.72-58.61 162.23-105.07 207.91-155.59.92 9.05 1.55 18.04 1.81 27-45.84 46.79-107.97 91.14-199.64 145.58-17.06 10.11-31.05 20.09-41.88 29.73 15.47-11.15 36.71-21.62 63.91-31.46" fill="#f6a71c" data-color="1"/>
        <path d="M877.55 441.81c-39.45 93.38-76.39 121.7-150.35 178.44-18.34 14.06-39.15 30.03-62.89 49.23-21.83 17.62-36.75 34.58-44.75 50.71-5.93 11.92-8.03 23.41-6.29 34.38 2.8 17.68 15.25 32.11 28.75 42.91 4.54 3.65 9.25 6.88 13.73 9.71 1.88 1.18 3.75 2.27 5.53 3.32 10.01 5.73 17.98 8.99 19.53 9.62.16.07.23.1.26.1l-.4 1.19-3.92 11.66-.07.23-.04.07-1.88 5.56c-.07 0-.13-.03-.23-.07-2.14-.66-14.26-4.38-29.47-11.72-2.04-.99-4.15-2.04-6.29-3.16-16.17-8.49-34.51-20.81-47.78-37.54-.36-.46-.72-.92-1.05-1.38-7.02-9.15-12.48-19.59-15.25-31.41-.59-2.5-1.05-5.04-1.35-7.57-4.51-35.07 15.77-73.46 60.36-114.29C763.37 513.09 814.54 433.08 821.52 328c6.12 8.5 11.92 17.26 17.32 26.28-13.21 98.72-67.8 178.54-191.77 292.07-39.74 36.38-57.89 69.18-54.1 97.6 1.29-29.08 21.04-59.24 58.91-89.83 23.94-19.36 44.85-35.36 63.29-49.52 78.3-60.06 111.82-85.78 152.59-191.28 3.66 9.29 6.92 18.78 9.79 28.49" fill="#f6a71c" data-color="1"/>
        <path d="M681.36 813.99c.46.07.76.13.79.13l-1.91 11.92-.33 2.04-.89 5.56c-.2-.03-.43-.03-.72-.1-.39-.07-.92-.17-1.61-.26-5.57-.92-20.09-3.62-37.9-9.32-34.61-11.1-81.7-33.52-99.84-76.33-.13-.33-.26-.62-.36-.95-4.48-10.73-6.78-22.1-7.02-34.05-.72-32.04 13.5-68.33 42.54-108.3 117.29-161.3 173.37-245.04 156.31-366.02 7.44 5.14 14.68 10.6 21.7 16.3 10.28 124.34-54.69 213.77-162.01 361.35-24.4 33.56-37.34 63.62-38.69 89.76 4.91-24.4 19.43-50.81 43.4-79.03a6014.45 6014.45 0 0 1 25.72-30.03c92.92-108.1 167.97-195.43 153.28-323.06 7.41 6.98 14.56 14.29 21.37 21.86 4.01 123.58-72.74 212.91-159.67 314.07-8.46 9.81-17.02 19.79-25.65 29.93-34.91 41.09-47.38 76.46-37.08 105.14.17.49.36.99.56 1.45 7.21 18.64 23.28 32.67 40.86 42.97 10.93 6.42 22.42 11.39 32.8 15.15 3.03 1.09 5.96 2.11 8.73 3 12.91 4.16 22.82 6.23 25.62 6.82" fill="#f6a71c" data-color="1"/>
        <path d="M681.36 813.99c.06.03.1.03.13.03l-.69 6.09-.13 1.29-.56 4.97-.2 1.71-.63 5.6c-.07 0-.17-.03-.27-.03-.2-.03-.43-.03-.72-.1-.43-.03-.99-.1-1.65-.2-5.07-.69-16.69-2.5-31.58-6.22-39.05-9.78-100.53-32.86-124.6-84.1-10.41-22.19-12.65-47.09-6.72-74.52 5.47-25.26 17.85-52.65 37.11-81.99 111.73-170.14 149.83-269.98 134.84-375.18 7.18 3.66 14.19 7.54 21.11 11.69C716.84 328 675.88 432.12 567.38 597.36c-29.18 44.45-41.2 83.11-35.83 115.28a82.74 82.74 0 0 0 6.78 21.93c10.47 22.36 30.13 38.66 51.6 50.48 10.8 5.93 22.03 10.73 32.76 14.55 9.75 3.49 19.06 6.19 27.33 8.27 4.02 1.02 7.8 1.91 11.23 2.63 11.35 2.41 18.99 3.36 20.11 3.49" fill="#f6a71c" data-color="1"/>
        <path d="M435.88 604.94c-44.91 86.57-95.36 183.84-89.07 291.02-6.85-3.26-13.57-6.72-20.18-10.41-2.7-107.74 47.15-203.86 91.7-289.7 32.73-63.09 62.3-120.09 65.03-170.7 1.15-21.11-2.37-41.09-12.25-59.93-3.39-6.45-7.64-12.51-12.58-18.24-13.7-16-32.63-29.18-52.42-39.74-11.42-6.13-23.11-11.36-34.28-15.8-10.34-4.12-20.18-7.54-28.88-10.31 1.42 1.51 2.77 3.06 4.12 4.64 1.05 1.25 2.1 2.5 3.09 3.79 1.74 2.17 3.39 4.38 4.97 6.62 9.29 13.5 14.72 27.96 11.29 41.69-4.15 16.6-20.15 28.32-47.58 34.91-1.15.3-2.31.56-3.49.82-65.06 14.13-122.26 29.57-161.31 43.13 3.09-8.23 6.49-16.33 10.14-24.3 53.84-17.29 119.56-32.21 146.96-38.13 14.88-3.23 33.19-9.52 36.12-21.2 3.16-12.65-10.67-33.49-36.91-55.75-4.68-3.95-5.99-10.51-3.19-15.97 2.76-5.43 8.86-8.2 14.82-6.72.13.04.23.07.36.1.07 0 .13.03.23.07 39.58 9.91 133.62 39.38 166.02 101.22 38.44 73.18-3.81 154.61-52.71 248.89" fill="#233c79" data-color="2"/>
        <path d="M377.57 373.48c-12.88 17.35-34.28 34.97-64.05 52.65-82.49 49-140.41 89.47-183.87 130.99-.17-9.19 0-18.37.56-27.46 42.74-38 98.03-75.87 173.24-120.52 17.06-10.14 31.05-20.09 41.88-29.73-15.48 11.16-36.72 21.63-63.88 31.48-59.7 21.63-107.71 46.46-145.41 70.24 1.68-9.15 3.72-18.21 6.09-27.13 35.86-21.07 79.72-42.54 132.57-61.67 18.41-6.68 32.86-13.24 44.16-19.56 29.41-16.43 37.41-31.15 38.07-41.75 1.48-23.51-31.74-45.8-44.68-52.42l4.64-11 .13-.3 2.9-6.85c.1.03.23.1.46.17 4.22 1.48 31.74 11.62 51.47 30.82.89.86 1.71 1.71 2.57 2.57 3.16 3.33 6.06 6.88 8.56 10.7 4.78 7.25 8.1 15.41 9.06 24.47 1.5 14.54-3.34 29.32-14.47 44.3" fill="#233c79" data-color="2"/>
        <path d="M363.41 461.9C245.16 570.16 192.22 646.23 178.48 738.49a362.87 362.87 0 0 1-14.75-29.21c19.79-85.48 75.18-160.16 186.34-261.94 39.71-36.39 57.89-69.18 54.07-97.6-1.29 29.07-21.04 59.24-58.91 89.83-23.94 19.33-44.85 35.36-63.29 49.52-69.91 53.64-104.12 79.88-139.65 159.97a365.905 365.905 0 0 1-6.88-31.48c34.21-67.21 70.5-95.03 134.51-144.16 18.34-14.09 39.15-30.03 62.89-49.23 21.83-17.62 36.75-34.58 44.75-50.71 5.93-11.92 8.03-23.41 6.29-34.38-2.8-17.68-15.21-32.11-28.71-42.94-4.61-3.62-9.29-6.88-13.8-9.65-1.91-1.22-3.79-2.34-5.6-3.39-9.98-5.69-17.91-8.99-19.43-9.58-.16-.07-.23-.1-.26-.1l.4-1.19 3.92-11.66.1-.23v-.07l1.88-5.56c.07 0 .13.03.23.07 2.14.63 14.26 4.35 29.47 11.72 2.01.95 4.08 2.01 6.22 3.13 16.17 8.5 34.58 20.81 47.84 37.57.36.43.73.89 1.05 1.35 7.02 9.15 12.48 19.63 15.25 31.45.56 2.44 1.02 4.91 1.32 7.41 4.61 35.11-15.67 73.57-60.32 114.47" fill="#233c79" data-color="2"/>
        <path d="M423.01 489.29C309.67 645.17 253.49 728.58 265.22 843.2a373.112 373.112 0 0 1-21.07-19.13c-4.08-116.73 59.93-204.78 162.86-346.37 24.4-33.59 37.34-63.62 38.69-89.76-4.91 24.4-19.43 50.81-43.4 79.03-8.66 10.17-17.22 20.19-25.71 30.03-88.02 102.41-160 186.14-154.86 303.14a366.99 366.99 0 0 1-19.59-24.79c5.43-112.02 77.97-196.38 159.47-291.21 8.46-9.85 17.02-19.79 25.65-29.93 34.9-41.09 47.38-76.43 37.11-105.11-.2-.56-.39-1.12-.63-1.65-7.24-18.47-23.21-32.43-40.76-42.74-10.9-6.39-22.39-11.39-32.8-15.15-3.06-1.15-6-2.14-8.83-3.03-15.05-4.87-26.04-6.95-26.38-6.98l1.91-11.95.33-1.98.89-5.6c.2.03.43.03.72.1.39.07.95.17 1.65.27 5.63.92 20.05 3.62 37.8 9.29 34.61 11.1 81.76 33.52 99.9 76.36.13.33.27.63.36.95 4.44 10.73 6.78 22.06 7.01 33.98.77 32.06-13.46 68.35-42.53 108.32" fill="#233c79" data-color="2"/>
        <path d="M483.37 425.15c-5.47 25.26-17.85 52.65-37.11 81.99C336.7 673.95 297.95 773.2 310.66 876.16c-7.18-4.41-14.22-9.09-21.07-14-7.08-102.17 34.58-205.08 140.14-365.89 29.21-44.45 41.19-83.14 35.83-115.31a82.766 82.766 0 0 0-6.78-21.93c-10.51-22.36-30.16-38.66-51.6-50.45-10.77-5.93-22-10.74-32.76-14.59-9.75-3.46-19.07-6.19-27.33-8.23-4.05-1.05-7.87-1.91-11.33-2.64-11.99-2.57-19.82-3.49-20.12-3.52l.69-6.06.13-1.29.56-4.97.2-1.68.63-5.63c.07 0 .16.03.26.03.2.04.43.04.72.1.43.03.99.1 1.65.2 5.1.69 16.73 2.5 31.58 6.22 39.05 9.78 100.53 32.86 124.6 84.1 10.39 22.21 12.63 47.1 6.71 74.53" fill="#233c79" data-color="2"/>
        <path fill="#122448" d="M986.83 745.25v41.39h-5.79v-41.39h5.79z" data-color="3"/>
        <path fill="#122448" d="M1004.83 786.64v-41.39h9.01l12.39 31.8h.12l12.21-31.8h9.01v41.39h-5.79v-34.61h-.12l-13.74 34.61h-3.68l-13.68-34.61h-.11v34.61h-5.62z" data-color="3"/>
        <path d="M1065.57 786.64v-41.39h12.63c4.95 0 8.65 1.01 11.11 3.04 2.45 2.03 3.68 4.85 3.68 8.48 0 4.01-1.39 6.97-4.18 8.86-2.79 1.89-6.42 2.83-10.9 2.83h-6.55v18.18h-5.79zm5.79-23.09h6.14c3.39 0 5.85-.61 7.37-1.84 1.52-1.23 2.28-2.87 2.28-4.94 0-2.22-.81-3.88-2.43-4.97-1.62-1.09-3.98-1.64-7.1-1.64h-6.26v13.39z" fill="#122448" data-color="3"/>
        <path d="M1128.06 787.69c-4.68 0-8.73-1.11-12.16-3.33-3.43-2.22-5.9-4.97-7.42-8.24-1.52-3.27-2.28-6.68-2.28-10.23 0-4.79 1.12-8.86 3.36-12.22 2.24-3.35 5.01-5.77 8.3-7.25 3.29-1.48 6.69-2.22 10.2-2.22 4.68 0 8.74 1.09 12.19 3.27 3.45 2.18 5.94 4.9 7.48 8.15s2.31 6.67 2.31 10.26c0 4.68-1.14 8.73-3.42 12.16-2.28 3.43-5.07 5.9-8.36 7.4-3.3 1.5-6.7 2.25-10.2 2.25m0-5.2c3.47 0 6.43-.88 8.88-2.63 2.46-1.75 4.21-3.88 5.26-6.37 1.05-2.49 1.58-5.03 1.58-7.6 0-3.39-.78-6.4-2.34-9.03-1.56-2.63-3.52-4.55-5.88-5.76a16.22 16.22 0 0 0-7.51-1.81c-3.47 0-6.45.92-8.94 2.75-2.49 1.83-4.23 4.01-5.2 6.55-.97 2.53-1.46 4.97-1.46 7.31 0 3.47.78 6.51 2.34 9.12 1.56 2.61 3.51 4.51 5.85 5.7 2.33 1.17 4.81 1.77 7.42 1.77" fill="#122448" data-color="3"/>
        <path d="M1165.88 786.63v-41.39h13.27c4.99 0 8.69 1.04 11.11 3.13 2.42 2.08 3.62 4.86 3.62 8.33 0 3.04-.94 5.5-2.8 7.36-1.87 1.87-4.29 3.06-7.25 3.57l11.57 19h-7.02l-10.52-18.41h-6.2v18.41h-5.78zm5.78-23.26h6.66c3.31 0 5.76-.6 7.34-1.81s2.37-2.82 2.37-4.85c0-2.22-.83-3.87-2.48-4.94-1.66-1.07-3.93-1.61-6.81-1.61h-7.07v13.21z" fill="#122448" data-color="3"/>
        <path fill="#122448" d="M1217.73 786.64v-36.31h-13.27v-5.08h32.32v5.08h-13.27v36.31h-5.78z" data-color="3"/>
        <path d="M1282.61 787.4c-4.09 0-7.36-1.1-9.79-3.3-2.44-2.2-3.65-5.02-3.65-8.45 0-2.73.83-5.07 2.48-7.01 1.66-1.95 3.93-3.6 6.81-4.97a22.84 22.84 0 0 1-3.36-4.35c-.92-1.54-1.37-3.24-1.37-5.11 0-3.27 1.1-5.76 3.3-7.45 2.2-1.69 4.78-2.54 7.74-2.54 3.16 0 5.73.89 7.72 2.66 1.99 1.77 2.98 4.12 2.98 7.04 0 2.53-.84 4.69-2.51 6.46-1.68 1.77-3.8 3.26-6.37 4.47l8.24 8.48 5.2-8.77h6.43l-7.95 12.33 9.47 9.76h-7.66l-5.14-5.44c-1.56 1.95-3.32 3.47-5.29 4.56-1.97 1.08-4.39 1.63-7.28 1.63m.12-4.68c1.99 0 3.66-.44 5.03-1.32 1.36-.88 2.61-2.17 3.74-3.89l-9.82-10.29c-2.03.86-3.64 1.93-4.85 3.22-1.21 1.29-1.81 2.98-1.81 5.09 0 2.22.79 3.97 2.37 5.26 1.57 1.29 3.35 1.93 5.34 1.93m.64-21.28c2.88-1.32 4.73-2.63 5.55-3.92.82-1.29 1.23-2.46 1.23-3.51 0-1.48-.5-2.73-1.49-3.74s-2.27-1.52-3.83-1.52c-1.6 0-2.92.51-3.97 1.52-1.05 1.01-1.58 2.34-1.58 3.97 0 1.21.41 2.45 1.23 3.74.82 1.3 1.77 2.45 2.86 3.46" fill="#122448" data-color="3"/>
        <path fill="#122448" d="M1344.17 786.64v-41.39h26.53v5.08h-20.75v12.4h19.53v4.97h-19.53v13.79h21.63v5.15h-27.41z" data-color="3"/>
        <path fill="#122448" d="m1383.27 786.64 14.79-21.92-13.33-19.47h7.08l9.93 15.43 9.83-15.43h6.78l-13.22 19.58 15.03 21.81h-7.31l-11.34-17.42-11.11 17.42h-7.13z" data-color="3"/>
        <path d="M1434.25 786.64v-41.39h12.63c4.95 0 8.65 1.01 11.11 3.04 2.45 2.03 3.68 4.85 3.68 8.48 0 4.01-1.39 6.97-4.18 8.86-2.79 1.89-6.42 2.83-10.9 2.83h-6.55v18.18h-5.79zm5.78-23.09h6.14c3.39 0 5.85-.61 7.37-1.84 1.52-1.23 2.28-2.87 2.28-4.94 0-2.22-.81-3.88-2.43-4.97-1.62-1.09-3.98-1.64-7.1-1.64h-6.26v13.39z" fill="#122448" data-color="3"/>
        <path d="M1496.73 787.69c-4.68 0-8.73-1.11-12.16-3.33s-5.9-4.97-7.42-8.24c-1.52-3.27-2.28-6.68-2.28-10.23 0-4.79 1.12-8.86 3.36-12.22 2.24-3.35 5.01-5.77 8.3-7.25 3.29-1.48 6.69-2.22 10.2-2.22 4.68 0 8.74 1.09 12.19 3.27 3.45 2.18 5.94 4.9 7.48 8.15s2.31 6.67 2.31 10.26c0 4.68-1.14 8.73-3.42 12.16-2.28 3.43-5.07 5.9-8.36 7.4-3.29 1.5-6.69 2.25-10.2 2.25m0-5.2c3.47 0 6.43-.88 8.88-2.63 2.46-1.75 4.21-3.88 5.26-6.37 1.05-2.49 1.58-5.03 1.58-7.6 0-3.39-.78-6.4-2.34-9.03-1.56-2.63-3.52-4.55-5.88-5.76a16.22 16.22 0 0 0-7.51-1.81c-3.47 0-6.45.92-8.94 2.75-2.49 1.83-4.23 4.01-5.2 6.55-.97 2.53-1.46 4.97-1.46 7.31 0 3.47.78 6.51 2.34 9.12 1.56 2.61 3.51 4.51 5.85 5.7 2.34 1.17 4.81 1.77 7.42 1.77" fill="#122448" data-color="3"/>
        <path d="M1534.55 786.63v-41.39h13.27c4.99 0 8.69 1.04 11.11 3.13 2.42 2.08 3.62 4.86 3.62 8.33 0 3.04-.94 5.5-2.8 7.36-1.87 1.87-4.29 3.06-7.25 3.57l11.57 19h-7.01l-10.52-18.41h-6.2v18.41h-5.79zm5.79-23.26h6.66c3.31 0 5.76-.6 7.34-1.81s2.37-2.82 2.37-4.85c0-2.22-.83-3.87-2.48-4.94-1.66-1.07-3.93-1.61-6.81-1.61h-7.07v13.21z" fill="#122448" data-color="3"/>
        <path fill="#122448" d="M1586.4 786.64v-36.31h-13.27v-5.08h32.33v5.08h-13.27v36.31h-5.79z" data-color="3"/>
        <path d="M1640.07 786.64v-41.39h12.63c4.95 0 8.65 1.01 11.11 3.04 2.45 2.03 3.68 4.85 3.68 8.48 0 4.01-1.39 6.97-4.18 8.86-2.79 1.89-6.42 2.83-10.9 2.83h-6.55v18.18h-5.79zm5.78-23.09h6.14c3.39 0 5.85-.61 7.37-1.84 1.52-1.23 2.28-2.87 2.28-4.94 0-2.22-.81-3.88-2.43-4.97-1.62-1.09-3.98-1.64-7.1-1.64h-6.25v13.39z" fill="#122448" data-color="3"/>
        <path fill="#122448" d="M1682.8 786.64v-41.39h5.78v36.24h18.47v5.15h-24.25z" data-color="3"/>
        <path d="M1738.56 787.69c-4.68 0-8.72-1.11-12.13-3.33-3.41-2.22-5.88-4.97-7.4-8.24-1.52-3.27-2.28-6.68-2.28-10.23 0-4.75 1.14-8.82 3.42-12.19 2.28-3.37 5.08-5.8 8.39-7.28 3.31-1.48 6.72-2.22 10.23-2.22 3.39 0 6.38.62 8.97 1.87 2.59 1.25 4.55 2.77 5.88 4.56l-4.56 3.51c-1.01-1.4-2.45-2.56-4.3-3.48-1.85-.92-3.85-1.38-5.99-1.38-4.75 0-8.56 1.63-11.43 4.88-2.86 3.25-4.3 7.16-4.3 11.72 0 4.87 1.43 8.87 4.3 11.98 2.86 3.12 6.61 4.68 11.25 4.68 2.34 0 4.46-.47 6.37-1.4 1.91-.94 3.49-2.3 4.73-4.09l4.62 3.16c-1.64 2.22-3.76 4.02-6.37 5.41-2.6 1.38-5.74 2.07-9.4 2.07" fill="#122448" data-color="3"/>
        <path d="M1489.91 720.84c.06-.14.14-.28.2-.43l.17-.48 2.48-6.53c-.97 2.48-1.91 4.96-2.85 7.44" fill="#122448" data-color="3"/>
        <path fill="#122448" d="M1085.28 546h38.87l102.51 178.4h-55.41l-67.4-116.66-67.4 116.66h-55.41L1085.28 546z" data-color="3"/>
        <path fill="#122448" d="M1136.38 724.39h-65.06l32.54-56.3 32.52 56.3z" data-color="3"/>
        <path d="M1402.89 644.28c-3.5-7.58-8.23-14.1-14.22-19.58 3.56-4.25 6.32-9.06 8.29-14.42 1.94-5.36 2.93-11.17 2.93-17.41 0-7.47-1.42-14.47-4.25-21-2.82-6.55-6.67-12.22-11.54-17.1-4.87-4.87-10.54-8.69-17.04-11.48-6.47-2.79-13.39-4.19-20.69-4.19h-82.83c-.34 0-.65.03-.94.09h-4.56v185.2h42.74v-.03h52.94c7.32 0 14.28-1.51 20.89-4.5 6.61-2.99 12.39-7.04 17.35-12.17 4.93-5.1 8.86-11.05 11.77-17.84 2.93-6.78 4.39-13.93 4.39-21.51.01-8.48-1.76-16.48-5.23-24.06m-96.56-68.36h26.78c2.73 0 5.3.49 7.61 1.43 2.34.97 4.36 2.28 6.01 3.93 1.68 1.68 2.96 3.59 3.88 5.76.91 2.14 1.4 4.47 1.4 6.98 0 2.65-.48 5.07-1.45 7.29-.97 2.19-2.28 4.1-3.93 5.73-1.68 1.62-3.7 2.88-6.07 3.73-2.39.88-4.99 1.31-7.84 1.31h-26.38v-36.16zm50.83 98.3c-.97 2.48-2.31 4.7-4.07 6.67-1.74 1.96-3.79 3.5-6.13 4.67s-4.87 1.74-7.61 1.74h-33.02v-41.66h33.02c2.74 0 5.3.63 7.69 1.88 2.37 1.25 4.42 2.85 6.13 4.79 1.71 1.97 3.02 4.19 3.99 6.7.97 2.48 1.45 4.99 1.45 7.46 0 2.68-.48 5.25-1.45 7.75" fill="#122448" data-color="3"/>
        <path d="m1600.26 718.9-20.83-53.79-48.84-125.99h-41.63l-1.48 3.85-.4 1v.03l-69.66 180.39h47.78c.43-1.17.85-2.33 1.31-3.47 0-.03 0-.03.03-.06.94-2.48 1.88-4.96 2.85-7.44l3.9-10.29.06-.11.86-2.22 1.48-3.9.91-2.45h66.24l5.13 13.71 6.07 16.24h48.35l-2.13-5.5zm-109.7-64.51c1.6-4.25 3.19-8.81 4.82-13.68 1.62-4.87 3.22-9.77 4.79-14.79 1.6-4.99 3.19-9.92 4.82-14.85 1.62-4.9 3.22-9.46 4.82-13.71l19.06 57.01h-38.31z" fill="#122448" data-color="3"/>
        <path fill="#122448" d="m1754.34 539.11-1.08 1.94-1.74 3.08-59.12 104.65v75.62h-48.27v-75.88l-59-104.39-1.57-2.77-1.28-2.25h54.02l1.82 3.88 30.37 64.47 30.15-64.47 1.79-3.88h53.91z" data-color="3"/>
        <path fill="#122448" d="M1754.34 303.61v204.36h-51.48v-83.95h-66.14v83.95h-51.47V303.61h51.47v73.3h66.14v-73.3h51.48z" data-color="3"/>
        <path fill="#122448" d="M1244.79 349.23v38.44h72.37v39.25h-72.37v35.4h95.39v45.65h-146.9V303.61h146.9v45.62h-95.39z" data-color="3"/>
        <path d="M1149.35 415.9v67.97c-15.3 13.15-34.54 21.85-55.72 24.05-3.72.3-7.36.45-10.94.45-6.62 0-13.06-.6-19.32-1.78-.42-.09-.84-.17-1.27-.25-.44-.09-.88-.19-1.33-.28-.33-.07-.66-.15-.99-.23-.56-.13-1.12-.26-1.68-.4-3.68-.92-7.27-2.04-10.77-3.35-.59-.22-1.18-.44-1.77-.68-1.43-.56-2.84-1.16-4.24-1.79-.5-.22-.99-.44-1.49-.68-1.84-.86-3.65-1.78-5.43-2.74-.31-.16-.61-.32-.91-.5-.35-.19-.7-.38-1.04-.59-.2-.12-.4-.23-.6-.35-.41-.23-.82-.47-1.22-.72a55.2 55.2 0 0 1-1.64-1c-.37-.23-.73-.45-1.09-.69-.2-.12-.4-.25-.6-.38-.42-.28-.84-.55-1.26-.84-.15-.09-.29-.19-.43-.28-.37-.26-.74-.51-1.11-.77l-.68-.48c-.28-.2-.57-.41-.84-.61-.29-.2-.57-.41-.85-.62-.25-.18-.48-.37-.73-.55-.39-.29-.78-.59-1.16-.89-.04-.03-.08-.06-.12-.1-.45-.35-.9-.71-1.35-1.07-.19-.15-.38-.31-.57-.47l-1.05-.87-.45-.39c-.35-.29-.69-.6-1.04-.9-.25-.21-.48-.42-.72-.64-.48-.42-.95-.85-1.42-1.29-.3-.28-.61-.57-.9-.85-.22-.2-.43-.41-.65-.62-.25-.24-.5-.48-.75-.74-.3-.29-.6-.59-.9-.89-.14-.15-.29-.3-.43-.45-.34-.34-.68-.69-1.01-1.05-.16-.16-.31-.32-.46-.48-.28-.3-.57-.61-.85-.92-.18-.2-.37-.4-.54-.61-.3-.33-.6-.66-.88-1-.4-.45-.79-.9-1.16-1.35-.31-.36-.61-.72-.9-1.09-.11-.12-.21-.25-.31-.37-.36-.44-.71-.88-1.05-1.33-.31-.39-.62-.79-.92-1.19-.25-.31-.48-.63-.71-.95-.31-.42-.62-.83-.92-1.26-.04-.05-.08-.1-.11-.15-.3-.41-.59-.82-.88-1.24-.17-.23-.33-.47-.49-.72-.19-.28-.38-.55-.56-.83-.24-.35-.47-.7-.7-1.06-.11-.17-.21-.33-.31-.49-.24-.37-.48-.74-.71-1.12-.18-.28-.35-.57-.52-.85-.22-.35-.43-.71-.64-1.06a3.47 3.47 0 0 1-.21-.37c-.28-.45-.54-.91-.8-1.38-.31-.55-.62-1.1-.92-1.66-.16-.29-.31-.58-.47-.87-.2-.37-.39-.74-.58-1.1-.13-.24-.25-.47-.36-.71-.2-.38-.38-.75-.56-1.14-.1-.2-.2-.39-.28-.59-.21-.43-.42-.87-.62-1.3-.09-.2-.18-.39-.27-.59-.22-.48-.43-.95-.64-1.44l-.03-.06c-.27-.61-.53-1.24-.79-1.87-.26-.62-.51-1.25-.75-1.87-.06-.12-.1-.25-.14-.36-.19-.5-.38-.99-.57-1.49-.07-.19-.14-.37-.2-.57-.19-.52-.37-1.03-.55-1.55-.28-.79-.53-1.59-.78-2.39-.17-.52-.33-1.05-.49-1.57-.02-.07-.04-.13-.06-.19-.18-.62-.36-1.23-.52-1.85a55.1 55.1 0 0 1-.48-1.84c-.09-.34-.17-.68-.25-1.01-.11-.41-.21-.83-.3-1.25-.31-1.34-.59-2.68-.85-4.05-.66-3.54-1.15-7.15-1.43-10.82-.11-1.39-.19-2.78-.24-4.18-.01-.16-.02-.32-.02-.49-.03-.66-.04-1.32-.05-1.98 0-.47-.01-.94-.01-1.41.01-3 .14-5.95.39-8.88.04-.42.07-.84.12-1.25.07-.67.14-1.33.22-2 .07-.64.15-1.27.25-1.9.03-.18.05-.36.07-.54.06-.45.13-.9.2-1.34.04-.27.09-.54.13-.81.09-.53.18-1.06.28-1.59.02-.14.06-.29.08-.44.13-.68.26-1.36.4-2.03l.18-.86c.07-.31.14-.63.22-.95.01-.05.03-.09.03-.14 10.31-45.34 50.87-79.19 99.35-79.19 23.62 0 45.36 8.04 62.64 21.52l-3.16 4.57-21.56 31.14-4.2 6.07a51.007 51.007 0 0 0-33.72-12.66c-26.75 0-48.71 20.48-51.05 46.61-.14 1.53-.21 3.08-.21 4.65 0 2.07.12 4.11.36 6.11 3.02 25.43 24.66 45.15 50.9 45.15 6.27 0 12.28-1.12 17.84-3.19V415.9h48.55z" fill="#122448" data-color="3"/>
        <path d="M1546.31 443.58c0 9.75-1.99 18.61-5.99 26.54-4 7.94-9.47 14.7-16.43 20.3-6.96 5.58-15.15 9.91-24.55 12.97-9.4 3.06-19.51 4.59-30.33 4.59-10.2 0-20.22-1.82-30.07-5.46-9.85-3.65-19.02-8.55-27.54-14.69-3.55-2.58-6.54-5.11-8.98-7.61-2.44-2.49-4.37-4.49-5.79-6l-.4-.4c-.09-.18-.18-.29-.26-.33-.09-.05-.18-.11-.27-.2-.09-.18-.18-.29-.26-.33-.06-.03-3.12-3.5-5.22-5.88l.33-.31 4.13-3.94.5-.47 23.02-21.95.01-.01 4.48-4.27.22-.21c3.16 2.95 9.44 9 11.33 10.68 2.35 2.09 5.03 4.15 8.05 6.19 4.52 3.02 9 5.37 13.44 7.05 4.43 1.69 9.09 2.53 13.96 2.53 4.53 0 8.32-.51 11.38-1.53 3.06-1.02 5.48-2.38 7.26-4.06 1.77-1.68 3.03-3.63 3.79-5.85.76-2.21 1.13-4.56 1.13-7.04 0-2.75-1.04-5.21-3.12-7.38s-4.64-4.1-7.65-5.78a65.186 65.186 0 0 0-9.45-4.32c-3.28-1.2-6.12-2.19-8.52-2.99-10.65-3.72-19.96-7.73-27.94-12.03-7.99-4.3-14.64-9.09-19.96-14.36s-9.31-11.07-11.98-17.41c-2.66-6.34-3.99-13.41-3.99-21.2 0-8.24 1.66-15.73 4.99-22.47 3.33-6.74 8.07-12.49 14.24-17.28 6.16-4.79 13.59-8.48 22.28-11.1 8.69-2.61 18.4-3.92 29.14-3.92 8.07 0 15.81.91 23.21 2.72 7.41 1.82 14.7 4.73 21.88 8.72 3.02 1.78 5.88 3.62 8.58 5.52 2.71 1.91 5.08 3.75 7.12 5.52 1.45 1.26 6.37 5.84 9.52 8.96l-.86.91-5.46 5.82-20.37 21.7-4 4.25-.68.73c-2.32-2.24-5.76-5.7-6.63-6.45l-1.2-1.06c-1.78-1.51-3.75-3.06-5.92-4.66-2.17-1.59-4.5-3.03-6.98-4.32a47.792 47.792 0 0 0-7.85-3.19c-2.75-.84-5.54-1.26-8.39-1.26-2.92 0-5.67.25-8.24.73-2.57.49-4.84 1.27-6.78 2.33-1.95 1.07-3.51 2.46-4.66 4.19-1.15 1.73-1.73 3.84-1.73 6.32 0 2.48.62 4.64 1.87 6.45 1.24 1.82 3.1 3.5 5.59 5.05 2.48 1.55 5.56 3.02 9.25 4.39 3.68 1.38 7.96 2.86 12.84 4.46 9.4 3.1 18.07 6.37 26.01 9.78 7.94 3.41 14.79 7.45 20.55 12.11 5.76 4.65 10.26 10.22 13.51 16.7 3.22 6.43 4.84 14.28 4.84 23.51" fill="#122448" data-color="3"/>
    </g>
</svg>
