<?xml version="1.0" encoding="UTF-8"?>
<svg data-bbox="17.001 17.94 849.989 358.8" viewBox="0 0 892 384" xmlns="http://www.w3.org/2000/svg" data-type="color">
    <g>
        <path d="M283.45 307.41c-1.62 6.48 5.45 17.15 18.9 28.55 2.4 2.02 3.05 5.38 1.64 8.18a6.696 6.696 0 0 1-5.95 3.64c-.56 0-1.1-.07-1.65-.2-.07-.02-.12-.03-.18-.05-.03 0-.07-.02-.12-.03-20.27-5.08-68.43-20.18-85.02-51.84-19.66-37.49 1.96-79.19 27-127.47 23.17-44.65 49.22-94.87 45.55-150.25 3.49 1.35 6.95 2.82 10.35 4.38 2.09 56.04-23.81 105.98-46.91 150.52-16.76 32.31-31.9 61.5-33.3 87.42-.59 10.81 1.21 21.05 6.27 30.69 1.74 3.31 3.91 6.42 6.44 9.34 7.03 8.21 16.71 14.94 26.85 20.35 5.85 3.14 11.84 5.82 17.56 8.1 5.29 2.09 10.34 3.84 14.79 5.26a67.68 67.68 0 0 1-2.11-2.38c-.52-.62-1.05-1.25-1.55-1.89-.91-1.13-1.77-2.28-2.56-3.44-4.77-6.91-7.56-14.32-5.8-21.35 2.12-8.5 10.34-14.52 24.42-17.89.57-.14 1.16-.27 1.75-.41 44.82-9.73 82.36-20.69 99.83-28.85a192.11 192.11 0 0 1-4.48 12.88c-28.77 11.37-75.9 22.11-93.2 25.87-7.64 1.66-17.03 4.88-18.52 10.87" fill="#f6a71b" data-color="1"/>
        <path d="M317.16 267.56c39.48-14.3 68.95-31.31 89.96-46.36-.49 4.66-1.15 9.26-1.99 13.81-20.89 14.01-48.68 29.07-84.53 42.06-9.39 3.41-16.78 6.76-22.56 9.98-15.09 8.42-19.21 15.97-19.55 21.42-.76 12.04 16.26 23.46 22.88 26.83l-2.38 5.63-.07.17-1.48 3.51c-.05-.02-.12-.05-.24-.08-2.16-.76-16.26-5.97-26.36-15.78-.46-.44-.89-.89-1.32-1.35-1.62-1.67-3.09-3.47-4.35-5.41-2.46-3.73-4.18-7.91-4.67-12.58-.78-7.45 1.7-15.02 7.4-22.68 6.59-8.9 17.55-17.91 32.8-26.96 50.56-30.02 83.09-53.81 106.47-79.68.47 4.64.79 9.24.93 13.83-23.47 23.96-55.29 46.68-102.24 74.55-8.73 5.18-15.9 10.29-21.45 15.23 7.94-5.74 18.82-11.1 32.75-16.14" fill="#f6a71b" data-color="1"/>
        <path d="M400.04 144.16c-20.2 47.82-39.12 62.33-77 91.38-9.39 7.2-20.05 15.38-32.21 25.21-11.18 9.02-18.82 17.71-22.92 25.97-3.03 6.1-4.11 11.99-3.22 17.61 1.43 9.06 7.81 16.44 14.72 21.97 2.33 1.87 4.74 3.52 7.03 4.97.96.61 1.92 1.16 2.83 1.7 5.13 2.93 9.21 4.61 10 4.92.08.03.12.05.13.05l-.2.61-2.01 5.97-.03.12-.02.03-.96 2.85c-.03 0-.07-.02-.12-.03-1.1-.34-7.3-2.24-15.09-6-1.05-.51-2.12-1.05-3.22-1.62-8.28-4.35-17.67-10.66-24.47-19.22-.19-.24-.37-.47-.54-.71-3.59-4.69-6.39-10.03-7.81-16.09-.3-1.28-.54-2.58-.69-3.88-2.31-17.96 8.08-37.62 30.91-58.53 66.41-60.79 92.61-101.77 96.19-155.58 3.14 4.35 6.1 8.83 8.87 13.46-6.76 50.56-34.72 91.43-98.21 149.58-20.35 18.63-29.65 35.43-27.71 49.98.66-14.89 10.78-30.34 30.17-46 12.26-9.92 22.97-18.11 32.41-25.36 40.1-30.76 57.27-43.93 78.14-97.96 1.89 4.76 3.57 9.62 5.03 14.6" fill="#f6a71b" data-color="1"/>
        <path d="M299.57 334.76c.24.03.39.07.41.07l-.98 6.1-.17 1.04-.45 2.85c-.1-.02-.22-.02-.37-.05-.2-.04-.47-.09-.83-.14-2.85-.47-10.29-1.85-19.41-4.77-17.72-5.68-41.84-17.17-51.13-39.09-.07-.17-.13-.32-.18-.49-2.29-5.5-3.47-11.31-3.59-17.43-.37-16.41 6.91-34.99 21.79-55.46 60.07-82.61 88.78-125.5 80.05-187.45 3.81 2.63 7.52 5.43 11.11 8.35 5.26 63.68-28.01 109.47-82.97 185.06-12.49 17.18-19.12 32.58-19.81 45.97 2.51-12.49 9.95-26.02 22.22-40.47 4.43-5.21 8.82-10.34 13.17-15.38 47.59-55.36 86.02-100.08 78.5-165.44 3.79 3.57 7.45 7.32 10.94 11.2 2.06 63.29-37.25 109.04-81.77 160.84-4.33 5.02-8.72 10.13-13.13 15.33-17.88 21.05-24.27 39.16-18.99 53.84.08.25.19.5.29.74 3.69 9.55 11.92 16.73 20.93 22.01 5.6 3.29 11.48 5.83 16.8 7.76 1.55.56 3.05 1.08 4.47 1.53 6.59 2.11 11.67 3.18 13.1 3.48" fill="#f6a71b" data-color="1"/>
        <path d="M299.57 334.76c.03.02.05.02.07.02l-.36 3.12-.07.66-.29 2.55-.1.88-.32 2.87c-.03 0-.08-.02-.13-.02-.1-.02-.22-.02-.37-.05-.22-.02-.51-.05-.84-.1-2.6-.35-8.55-1.28-16.17-3.19-20-5.01-51.48-16.83-63.81-43.07-5.33-11.37-6.48-24.11-3.44-38.16 2.8-12.93 9.14-26.96 19.01-41.99 57.22-87.13 76.73-138.26 69.05-192.14 3.68 1.87 7.27 3.86 10.81 5.99 5.14 53.76-15.83 107.08-71.4 191.7-14.94 22.76-21.1 42.56-18.35 59.04.64 3.93 1.8 7.67 3.47 11.23 5.36 11.45 15.43 19.8 26.43 25.85 5.53 3.04 11.28 5.5 16.78 7.45 4.99 1.79 9.76 3.17 14 4.23 2.06.52 4 .98 5.75 1.35 5.8 1.22 9.71 1.71 10.28 1.78" fill="#f6a71b" data-color="1"/>
        <path d="M173.86 227.7c-23 44.33-48.84 94.15-45.61 149.04-3.51-1.67-6.95-3.44-10.34-5.33-1.38-55.18 24.15-104.4 46.96-148.36 16.76-32.31 31.9-61.5 33.3-87.42.59-10.81-1.21-21.05-6.27-30.69-1.74-3.31-3.91-6.41-6.44-9.34-7.02-8.2-16.71-14.94-26.85-20.35-5.85-3.14-11.84-5.82-17.56-8.09-5.29-2.11-10.34-3.86-14.79-5.28.73.78 1.42 1.57 2.11 2.38.54.64 1.08 1.28 1.59 1.94.89 1.11 1.74 2.24 2.54 3.39 4.76 6.91 7.54 14.32 5.78 21.35-2.12 8.5-10.32 14.5-24.37 17.87-.59.15-1.18.29-1.79.42-33.32 7.23-62.61 15.14-82.61 22.09 1.58-4.22 3.32-8.36 5.19-12.45 27.57-8.85 61.23-16.49 75.26-19.53 7.62-1.65 17-4.87 18.5-10.86 1.62-6.48-5.46-17.15-18.9-28.55a6.666 6.666 0 0 1-1.63-8.18 6.67 6.67 0 0 1 7.59-3.44c.07.02.12.03.19.05.03 0 .07.02.12.03 20.27 5.08 68.43 20.17 85.02 51.84 19.68 37.48-1.95 79.19-26.99 127.47" fill="#233c7a" data-color="2"/>
        <path d="M143.99 109.16c-6.59 8.89-17.56 17.91-32.8 26.96-42.24 25.09-71.9 45.82-94.16 67.08-.08-4.71 0-9.41.29-14.06 21.89-19.46 50.2-38.85 88.72-61.72 8.73-5.19 15.9-10.29 21.45-15.23-7.93 5.72-18.8 11.08-32.71 16.12-30.57 11.08-55.16 23.8-74.47 35.97.86-4.69 1.91-9.32 3.12-13.89 18.36-10.79 40.82-21.79 67.89-31.59 9.43-3.42 16.83-6.78 22.61-10.02 15.06-8.42 19.16-15.95 19.49-21.38.76-12.04-16.26-23.46-22.88-26.85l2.38-5.63.07-.15 1.48-3.51c.05.02.12.05.24.09 2.16.76 16.26 5.95 26.36 15.78.46.44.88.88 1.32 1.32 1.62 1.7 3.1 3.52 4.38 5.48 2.44 3.71 4.15 7.89 4.64 12.53.76 7.46-1.72 15.03-7.42 22.7" fill="#233c7a" data-color="2"/>
        <path d="M136.74 154.44c-60.56 55.45-87.67 94.4-94.7 141.65-2.73-4.86-5.26-9.85-7.56-14.96 10.13-43.78 38.5-82.02 95.43-134.15 20.34-18.63 29.65-35.43 27.69-49.98-.66 14.89-10.78 30.34-30.17 46-12.26 9.9-22.97 18.11-32.41 25.36-35.8 27.47-53.32 40.91-71.52 81.92a186.12 186.12 0 0 1-3.52-16.12c17.52-34.42 36.1-48.67 68.89-73.83 9.39-7.22 20.05-15.38 32.21-25.21 11.18-9.02 18.82-17.71 22.92-25.97 3.03-6.11 4.11-11.99 3.22-17.61-1.43-9.06-7.79-16.44-14.7-21.99a74.692 74.692 0 0 0-7.07-4.94c-.98-.62-1.94-1.2-2.87-1.74-5.11-2.92-9.17-4.6-9.95-4.91-.08-.03-.12-.05-.13-.05l.2-.61 2.01-5.97.05-.12v-.03l.96-2.85c.03 0 .07.02.12.03 1.1.32 7.3 2.23 15.09 6 1.03.49 2.09 1.03 3.19 1.6 8.28 4.35 17.71 10.66 24.5 19.24.19.22.37.46.54.69 3.59 4.69 6.39 10.05 7.81 16.11.29 1.25.52 2.51.67 3.79 2.36 18.01-8.03 37.71-30.9 58.65" fill="#233c7a" data-color="2"/>
        <path d="M167.26 168.47c-58.04 79.83-86.81 122.54-80.81 181.24-3.71-3.12-7.32-6.39-10.79-9.8-2.09-59.78 30.69-104.87 83.41-177.38 12.49-17.2 19.12-32.58 19.81-45.97-2.51 12.5-9.95 26.02-22.22 40.47-4.43 5.21-8.82 10.34-13.17 15.38-45.07 52.44-81.94 95.33-79.31 155.24-3.52-4.08-6.86-8.31-10.03-12.7 2.78-57.37 39.93-100.57 81.67-149.14 4.33-5.04 8.72-10.14 13.13-15.33 17.88-21.04 24.27-39.14 19.01-53.83-.1-.29-.2-.57-.32-.84-3.71-9.46-11.89-16.61-20.88-21.89-5.58-3.27-11.47-5.83-16.8-7.76a90.52 90.52 0 0 0-4.52-1.55c-7.71-2.5-13.34-3.56-13.51-3.57l.98-6.12.17-1.01.45-2.87c.1.02.22.02.37.05.2.03.49.08.84.13 2.88.47 10.27 1.86 19.36 4.76 17.72 5.68 41.87 17.17 51.16 39.11.07.17.13.32.19.49 2.28 5.5 3.47 11.3 3.59 17.4.4 16.44-6.89 35.02-21.78 55.49" fill="#233c7a" data-color="2"/>
        <path d="M198.17 135.62c-2.8 12.93-9.14 26.96-19.01 41.99-56.1 85.43-75.95 136.25-69.44 188.98-3.68-2.26-7.28-4.65-10.79-7.17-3.63-52.32 17.71-105.02 71.77-187.38 14.96-22.76 21.1-42.58 18.35-59.05-.64-3.95-1.81-7.67-3.47-11.23-5.38-11.45-15.45-19.8-26.42-25.83-5.51-3.04-11.26-5.5-16.78-7.47-4.99-1.77-9.76-3.17-14-4.22-2.07-.54-4.03-.98-5.8-1.35-6.14-1.32-10.15-1.79-10.3-1.8l.35-3.1.07-.66.29-2.55.1-.86.32-2.88c.03 0 .09.02.13.02.1.02.22.02.37.05.22.02.51.05.84.1 2.61.35 8.57 1.28 16.17 3.19 20 5.01 51.48 16.83 63.81 43.07 5.33 11.36 6.48 24.11 3.44 38.15" fill="#233c7a" data-color="2"/>
        <path d="M526.44 123.52c0-1.01.28-1.82.83-2.43.56-.61 1.39-.91 2.5-.91h12.36c.86 0 1.67.3 2.43.91.76.61 1.14 1.42 1.14 2.43v34.81c0 .61-.15 1.19-.45 1.74-.3.56-.86 1.09-1.67 1.59-.05 0-.08.01-.08.04s-.03.04-.08.04a54.903 54.903 0 0 1-7.66 4.48 57.33 57.33 0 0 1-8.57 3.3c-2.98.89-6.04 1.57-9.18 2.05-3.14.48-6.27.72-9.41.72-5.31 0-10.44-.68-15.4-2.05-4.96-1.37-9.57-3.31-13.84-5.84a58.963 58.963 0 0 1-11.68-9.06 58.593 58.593 0 0 1-9.06-11.68c-2.53-4.27-4.47-8.87-5.84-13.8-1.37-4.93-2.05-10.08-2.05-15.43 0-5.31.68-10.43 2.05-15.36 1.37-4.93 3.31-9.54 5.84-13.84 2.53-4.3 5.55-8.22 9.06-11.76 3.51-3.54 7.42-6.57 11.72-9.1 4.3-2.53 8.91-4.49 13.84-5.88 4.93-1.39 10.08-2.09 15.43-2.09 3.59 0 7.17.32 10.73.95 3.56.63 7.02 1.58 10.35 2.84 1.26.5 2.77 1.14 4.51 1.89 1.74.76 3.4 1.59 4.97 2.5 1.57.91 2.89 1.85 3.98 2.81 1.09.96 1.63 1.9 1.63 2.81 0 .41-.23 1.05-.68 1.93-.46.89-1.03 1.88-1.71 3-.68 1.11-1.45 2.26-2.31 3.45-.86 1.19-1.69 2.26-2.5 3.22-.81.96-1.54 1.76-2.2 2.39-.66.63-1.16.95-1.52.95-.3 0-.67-.06-1.1-.19-.43-.13-.87-.37-1.33-.72-3.19-2.22-6.78-3.99-10.77-5.31-4-1.31-8.07-1.97-12.21-1.97-5.41 0-10.37 1.01-14.87 3.03-4.5 2.02-8.37 4.75-11.6 8.19-3.24 3.44-5.77 7.42-7.59 11.95-1.82 4.53-2.73 9.29-2.73 14.3 0 5.16.97 10 2.92 14.52 1.95 4.53 4.58 8.47 7.89 11.83 3.31 3.36 7.19 6.02 11.64 7.96 4.45 1.95 9.18 2.92 14.18 2.92 1.87 0 3.72-.14 5.54-.42 1.82-.28 3.53-.63 5.12-1.06 1.59-.43 3.02-.91 4.29-1.44 1.26-.53 2.3-1.05 3.11-1.55v-23.66z" fill="#122448" data-color="3"/>
        <path d="M569.83 61.63c0-2.43 1.11-3.64 3.34-3.64h73.12c1.31 0 2.25.37 2.81 1.11.56.74.83 1.66.83 2.78v13.4c0 .91-.32 1.72-.95 2.44-.63.71-1.58 1.07-2.84 1.07H592.2v22.98h41.57c1.01-.1 1.82.11 2.43.64.61.53.91 1.43.91 2.69v13.73c0 .91-.25 1.72-.76 2.43-.5.71-1.31 1.06-2.43 1.06H592.2v27.53h55.9c1.41 0 2.35.3 2.81.91.45.61.68 1.55.68 2.82v13.86c0 2.13-1.11 3.2-3.34 3.2h-75.09c-.91 0-1.69-.25-2.35-.76-.66-.5-.99-1.31-.99-2.43V61.63z" fill="#122448" data-color="3"/>
        <path d="M734.27 88.02a3.5 3.5 0 0 1-1.82-.49c-.56-.33-1.19-.77-1.9-1.33l-.15-.08c-.96-.96-2.2-2.02-3.72-3.19a38.553 38.553 0 0 0-5.08-3.26 37.215 37.215 0 0 0-6.03-2.58c-2.15-.71-4.34-1.06-6.56-1.06-2.83 0-5.34.32-7.51.95-2.17.63-3.99 1.49-5.46 2.58-1.47 1.09-2.58 2.36-3.34 3.83s-1.14 3.03-1.14 4.7c0 1.82.57 3.41 1.71 4.78 1.14 1.37 2.68 2.58 4.63 3.64 1.95 1.06 4.18 2.04 6.71 2.92 2.53.89 5.18 1.76 7.96 2.62 3.18.96 6.34 2 9.48 3.11 3.13 1.11 6.13 2.36 8.99 3.75 2.86 1.39 5.52 2.93 8 4.63 2.48 1.69 4.61 3.64 6.41 5.84 1.79 2.2 3.21 4.65 4.25 7.36s1.55 5.75 1.55 9.14c0 5.51-1.11 10.49-3.34 14.94-2.23 4.45-5.3 8.26-9.22 11.42-3.92 3.16-8.52 5.59-13.8 7.28-5.29 1.69-10.96 2.54-17.03 2.54-3.9 0-7.76-.45-11.61-1.37-3.84-.91-7.54-2.2-11.07-3.87a58.953 58.953 0 0 1-10.05-6.03 50.215 50.215 0 0 1-8.46-7.93v.08l-.15-.3c-1.11-1.26-1.67-2.43-1.67-3.49 0-.56.15-1.09.45-1.59.3-.5.76-1.06 1.37-1.67l2.5-2.5c.76-.66 1.57-1.39 2.43-2.2.86-.81 1.72-1.54 2.58-2.2.86-.66 1.66-1.21 2.39-1.67.73-.46 1.33-.68 1.78-.68.71 0 1.37.23 1.97.68.61.45 1.11.89 1.52 1.29l.3.3h-.08c1.77 1.67 3.75 3.26 5.95 4.78a59.68 59.68 0 0 0 6.79 4.06c2.32 1.19 4.64 2.12 6.94 2.81 2.3.68 4.46 1.02 6.48 1.02 2.78 0 5.39-.35 7.81-1.06 2.43-.71 4.52-1.71 6.3-3 1.77-1.29 3.16-2.84 4.17-4.67s1.52-3.84 1.52-6.07c0-2.22-.66-4.13-1.97-5.73-1.31-1.59-3.03-2.98-5.16-4.17-2.12-1.19-4.51-2.21-7.17-3.07a229.6 229.6 0 0 0-8-2.43c-6.17-1.87-11.57-3.89-16.19-6.07-4.63-2.17-8.48-4.61-11.57-7.32-3.08-2.71-5.4-5.74-6.94-9.1-1.54-3.36-2.31-7.14-2.31-11.34 0-4.7.95-8.99 2.84-12.86 1.9-3.87 4.59-7.18 8.08-9.94s7.68-4.9 12.59-6.45c4.9-1.54 10.39-2.31 16.46-2.31 4.6 0 9.28.72 14.03 2.16 4.75 1.44 9.15 3.43 13.2 5.95 1.21.76 2.45 1.62 3.72 2.58 1.26.96 2.43 1.93 3.49 2.92 1.06.98 1.93 1.95 2.62 2.88.68.94 1.02 1.73 1.02 2.39 0 .61-.15 1.23-.45 1.86-.3.63-.68 1.2-1.14 1.71l-2.28 2.43v-.08c-.76.81-1.54 1.64-2.35 2.5-.81.86-1.62 1.63-2.43 2.31-.81.68-1.54 1.25-2.2 1.71-.63.48-1.19.71-1.64.71z" fill="#122448" data-color="3"/>
        <path d="M770.9 61.32c0-.86.29-1.63.87-2.31.58-.68 1.37-1.03 2.38-1.03h15.12c.86 0 1.66.33 2.42.99.76.66 1.13 1.44 1.13 2.35v39.29h50.89V61.32c0-.91.3-1.69.91-2.35s1.41-.99 2.42-.99h14.89c1.01 0 1.88.29 2.61.87.73.58 1.1 1.38 1.1 2.39v106.04c0 2.23-1.18 3.34-3.55 3.34h-15.04c-2.22 0-3.32-1.11-3.32-3.34v-45.89h-50.89v45.89c0 2.23-1.24 3.34-3.7 3.34h-14.97c-2.17 0-3.25-1.04-3.25-3.11V61.32z" fill="#122448" data-color="3"/>
        <path d="M448.62 306.62c.25-1.01.54-1.95.87-2.81.33-.86.62-1.64.87-2.35l40.88-101.79c.15-.56.57-1.18 1.25-1.86.68-.68 1.61-1.03 2.77-1.03h12.21c1.21 0 2.09.3 2.62.91.53.61.92 1.14 1.18 1.59l2.5 5.91 40.05 100.2c0 .15.04.42.11.8.08.38.11.7.11.95 0 1.52-1.11 2.27-3.34 2.27h-14.94c-1.11 0-1.97-.23-2.58-.68-.61-.45-1.11-1.16-1.52-2.12l-1.37-3.49c-.96-2.43-1.92-4.85-2.88-7.28-.96-2.43-1.9-4.88-2.81-7.36h-46.8a477.74 477.74 0 0 1-3.83 9.97c-1.24 3.11-2.29 5.83-3.15 8.15-.71 1.87-2.02 2.81-3.94 2.81h-15.17c-.96 0-1.73-.18-2.31-.53-.58-.35-.87-.88-.87-1.59.02-.29.04-.52.09-.67zm52.8-80.93c-2.73 6.98-5.45 14.21-8.15 21.69-2.71 7.49-5.42 14.69-8.15 21.62h32.31l-16.01-43.31z" fill="#122448" data-color="3"/>
        <path d="M570.59 200.36c0-2.38 1.14-3.57 3.41-3.57h47.44c4.4 0 8.52.82 12.39 2.47 3.86 1.64 7.22 3.88 10.08 6.71 2.85 2.83 5.1 6.17 6.75 10.01 1.64 3.84 2.46 7.99 2.46 12.44 0 4.1-.73 7.91-2.2 11.45-1.47 3.54-3.49 6.65-6.07 9.33 2.07 1.52 3.95 3.26 5.61 5.23s3.11 4.1 4.31 6.37a33.96 33.96 0 0 1 2.81 7.25c.67 2.55 1 5.17 1 7.85 0 4.5-.85 8.77-2.54 12.82-1.69 4.05-4 7.61-6.9 10.69a32.404 32.404 0 0 1-10.28 7.32c-3.94 1.79-8.17 2.69-12.67 2.69H574c-1.01 0-1.83-.26-2.46-.8-.63-.53-.95-1.35-.95-2.47V200.36zm60.6 28.44c0-1.92-.34-3.72-1.03-5.39-.68-1.67-1.63-3.11-2.85-4.32-1.22-1.21-2.67-2.16-4.37-2.84-1.7-.68-3.56-1.02-5.59-1.02H592.5v27.46h24.62c2.03 0 3.9-.35 5.62-1.06s3.2-1.68 4.44-2.92a13.51 13.51 0 0 0 2.93-4.4c.72-1.71 1.08-3.54 1.08-5.51zm4.93 46.49c0-1.72-.3-3.4-.91-5.04-.61-1.64-1.44-3.12-2.51-4.44a14.495 14.495 0 0 0-3.8-3.3c-1.47-.88-3.07-1.48-4.79-1.78-1.01-.15-2.04-.29-3.08-.42a25.37 25.37 0 0 0-3.15-.19H592.5v30.79h25.38c1.07 0 2.1-.04 3.12-.11 1.01-.08 2.03-.21 3.04-.42a12.4 12.4 0 0 0 4.79-1.74c1.47-.91 2.75-2.05 3.84-3.41 1.09-1.37 1.94-2.89 2.54-4.59s.91-3.48.91-5.35z" fill="#122448" data-color="3"/>
        <path d="M668.28 306.62c.25-1.01.54-1.95.87-2.81.33-.86.62-1.64.87-2.35l40.88-101.79c.15-.56.57-1.18 1.25-1.86.68-.68 1.61-1.03 2.77-1.03h12.21c1.21 0 2.09.3 2.62.91.53.61.92 1.14 1.18 1.59l2.5 5.91 40.05 100.2c0 .15.04.42.11.8.08.38.11.7.11.95 0 1.52-1.11 2.27-3.34 2.27h-14.94c-1.11 0-1.97-.23-2.58-.68-.61-.45-1.11-1.16-1.52-2.12l-1.37-3.49c-.96-2.43-1.92-4.85-2.88-7.28-.96-2.43-1.9-4.88-2.81-7.36h-46.8a477.74 477.74 0 0 1-3.83 9.97c-1.24 3.11-2.29 5.83-3.15 8.15-.71 1.87-2.02 2.81-3.94 2.81h-15.17c-.96 0-1.73-.18-2.31-.53-.58-.35-.87-.88-.87-1.59.01-.29.04-.52.09-.67zm52.79-80.93c-2.73 6.98-5.45 14.21-8.15 21.69-2.71 7.49-5.42 14.69-8.15 21.62h32.31l-16.01-43.31z" fill="#122448" data-color="3"/>
        <path d="M818.38 242.68h.15l22.98-43.46c.56-1.11 1.04-1.76 1.44-1.93.4-.18.96-.34 1.67-.49h20.93c.96 0 1.44.43 1.44 1.29 0 .46-.33 1.09-.98 1.9-6.12 10.37-12.19 20.82-18.2 31.36-6.02 10.54-12.14 21-18.36 31.36v43.16c0 2.38-1.14 3.56-3.41 3.56h-15.47c-2.12 0-3.19-1.19-3.19-3.56v-43.01l-36.48-62.73c-.25-.25-.45-.62-.61-1.1-.15-.48-.23-.85-.23-1.1 0-.76.48-1.14 1.44-1.14h20.78c.4.1.73.16.99.19.25.03.49.11.72.26.23.15.45.4.68.76s.52.86.87 1.52l22.84 43.16z" fill="#122448" data-color="3"/>
        <path fill="#122448" d="M452.77 324.54v22.28h-3.12v-22.28h3.12z" data-color="3"/>
        <path fill="#122448" d="M462.46 346.83v-22.29h4.85l6.67 17.12h.07l6.58-17.12h4.84v22.29h-3.11v-18.64h-.07l-7.39 18.64h-1.99l-7.36-18.64h-.06v18.64h-3.03z" data-color="3"/>
        <path d="M495.17 346.83v-22.28h6.8c2.67 0 4.66.55 5.98 1.64 1.32 1.09 1.98 2.61 1.98 4.56 0 2.16-.75 3.75-2.25 4.77-1.5 1.02-3.46 1.53-5.87 1.53h-3.52v9.79h-3.12zm3.11-12.44h3.31c1.83 0 3.15-.33 3.96-.99.82-.66 1.23-1.55 1.23-2.66 0-1.2-.43-2.09-1.3-2.68-.87-.59-2.15-.88-3.82-.88h-3.37v7.21z" fill="#122448" data-color="3"/>
        <path d="M528.81 347.39c-2.52 0-4.7-.6-6.55-1.79-1.85-1.2-3.18-2.68-4-4.44a12.91 12.91 0 0 1-1.23-5.51c0-2.58.6-4.77 1.81-6.58 1.21-1.81 2.7-3.1 4.47-3.9 1.77-.8 3.6-1.2 5.49-1.2 2.52 0 4.71.59 6.56 1.76 1.86 1.17 3.2 2.64 4.03 4.39.83 1.75 1.24 3.59 1.24 5.52 0 2.52-.62 4.7-1.84 6.55-1.23 1.85-2.73 3.17-4.5 3.98-1.76.82-3.59 1.22-5.48 1.22m0-2.8c1.87 0 3.46-.47 4.78-1.42 1.32-.94 2.27-2.09 2.83-3.43.57-1.34.85-2.71.85-4.09 0-1.83-.42-3.45-1.26-4.86-.84-1.42-1.9-2.45-3.16-3.1a8.761 8.761 0 0 0-4.04-.98c-1.87 0-3.47.49-4.82 1.48-1.34.99-2.28 2.16-2.8 3.52-.53 1.36-.79 2.67-.79 3.93 0 1.87.42 3.5 1.26 4.91.84 1.41 1.89 2.43 3.15 3.07 1.26.65 2.6.97 4 .97" fill="#122448" data-color="3"/>
        <path d="M549.18 346.82v-22.28h7.14c2.69 0 4.68.56 5.98 1.68 1.3 1.12 1.95 2.62 1.95 4.49 0 1.64-.5 2.96-1.51 3.97-1.01 1.01-2.31 1.65-3.9 1.92l6.23 10.23h-3.78l-5.67-9.91h-3.34v9.91h-3.1zm3.11-12.52h3.59c1.78 0 3.1-.32 3.95-.97.85-.65 1.27-1.52 1.27-2.61 0-1.2-.45-2.08-1.34-2.66-.89-.58-2.12-.87-3.67-.87h-3.81v7.11z" fill="#122448" data-color="3"/>
        <path fill="#122448" d="M577.09 346.83v-19.55h-7.14v-2.74h17.41v2.74h-7.15v19.55h-3.12z" data-color="3"/>
        <path d="M612.03 347.23c-2.2 0-3.96-.59-5.27-1.78-1.31-1.18-1.97-2.7-1.97-4.55 0-1.47.45-2.73 1.34-3.78.89-1.05 2.11-1.94 3.67-2.67-.71-.74-1.32-1.52-1.81-2.35-.49-.83-.74-1.75-.74-2.75 0-1.76.59-3.1 1.78-4.01 1.18-.91 2.58-1.37 4.17-1.37 1.7 0 3.08.48 4.15 1.43 1.07.95 1.6 2.22 1.6 3.79 0 1.36-.45 2.52-1.35 3.48-.9.95-2.05 1.76-3.43 2.41l4.44 4.57 2.8-4.72h3.46l-4.28 6.64 5.1 5.26h-4.12l-2.77-2.93c-.84 1.05-1.79 1.87-2.85 2.46-1.06.58-2.37.87-3.92.87m.06-2.51c1.07 0 1.97-.24 2.71-.71.73-.47 1.41-1.17 2.02-2.09l-5.29-5.54c-1.09.46-1.96 1.04-2.61 1.73-.65.69-.98 1.6-.98 2.74 0 1.2.43 2.14 1.27 2.83.86.69 1.81 1.04 2.88 1.04m.35-11.46c1.55-.71 2.55-1.42 2.99-2.11.44-.69.66-1.32.66-1.89 0-.8-.27-1.47-.8-2.02-.53-.54-1.22-.82-2.06-.82-.86 0-1.57.27-2.14.82-.57.55-.85 1.26-.85 2.14 0 .65.22 1.32.66 2.01.44.7.95 1.32 1.54 1.87" fill="#122448" data-color="3"/>
        <path fill="#122448" d="M645.17 346.83v-22.29h14.29v2.74h-11.17v6.67h10.51v2.68h-10.51v7.43h11.65v2.77h-14.77z" data-color="3"/>
        <path fill="#122448" d="m666.23 346.83 7.96-11.81-7.17-10.48h3.81l5.35 8.31 5.28-8.31h3.66L678 335.09l8.09 11.74h-3.93l-6.11-9.39-5.98 9.39h-3.84z" data-color="3"/>
        <path d="M693.68 346.83v-22.28h6.8c2.67 0 4.66.55 5.98 1.64 1.32 1.09 1.98 2.61 1.98 4.56 0 2.16-.75 3.75-2.25 4.77-1.5 1.02-3.46 1.53-5.87 1.53h-3.52v9.79h-3.12zm3.11-12.44h3.31c1.83 0 3.15-.33 3.96-.99.82-.66 1.23-1.55 1.23-2.66 0-1.2-.43-2.09-1.3-2.68-.87-.59-2.15-.88-3.82-.88h-3.37v7.21z" fill="#122448" data-color="3"/>
        <path d="M727.32 347.39c-2.52 0-4.7-.6-6.55-1.79-1.85-1.2-3.18-2.68-4-4.44a12.91 12.91 0 0 1-1.23-5.51c0-2.58.6-4.77 1.81-6.58 1.21-1.81 2.7-3.1 4.47-3.9 1.77-.8 3.61-1.2 5.49-1.2 2.52 0 4.71.59 6.56 1.76 1.86 1.17 3.2 2.64 4.03 4.39.83 1.75 1.24 3.59 1.24 5.52 0 2.52-.61 4.7-1.84 6.55-1.23 1.85-2.73 3.17-4.5 3.98-1.76.82-3.59 1.22-5.48 1.22m0-2.8c1.87 0 3.46-.47 4.78-1.42 1.32-.94 2.26-2.09 2.83-3.43.57-1.34.85-2.71.85-4.09 0-1.83-.42-3.45-1.26-4.86-.84-1.42-1.89-2.45-3.16-3.1a8.761 8.761 0 0 0-4.04-.98c-1.87 0-3.47.49-4.82 1.48-1.34.99-2.28 2.16-2.8 3.52-.52 1.36-.79 2.67-.79 3.93 0 1.87.42 3.5 1.26 4.91.84 1.41 1.89 2.43 3.15 3.07 1.26.65 2.6.97 4 .97" fill="#122448" data-color="3"/>
        <path d="M747.69 346.82v-22.28h7.14c2.68 0 4.68.56 5.98 1.68 1.3 1.12 1.95 2.62 1.95 4.49 0 1.64-.5 2.96-1.51 3.97-1.01 1.01-2.31 1.65-3.9 1.92l6.23 10.23h-3.78l-5.67-9.91h-3.34v9.91h-3.1zm3.11-12.52h3.59c1.78 0 3.1-.32 3.95-.97.85-.65 1.28-1.52 1.28-2.61 0-1.2-.45-2.08-1.34-2.66-.89-.58-2.11-.87-3.67-.87h-3.81v7.11z" fill="#122448" data-color="3"/>
        <path fill="#122448" d="M775.61 346.83v-19.55h-7.15v-2.74h17.41v2.74h-7.15v19.55h-3.11z" data-color="3"/>
        <path d="M804.5 346.83v-22.28h6.8c2.67 0 4.66.55 5.98 1.64 1.32 1.09 1.98 2.61 1.98 4.56 0 2.16-.75 3.75-2.25 4.77-1.5 1.02-3.46 1.53-5.87 1.53h-3.52v9.79h-3.12zm3.11-12.44h3.31c1.83 0 3.15-.33 3.96-.99.82-.66 1.23-1.55 1.23-2.66 0-1.2-.43-2.09-1.3-2.68-.87-.59-2.15-.88-3.83-.88h-3.37v7.21z" fill="#122448" data-color="3"/>
        <path fill="#122448" d="M827.51 346.83v-22.29h3.11v19.52h9.95v2.77h-13.06z" data-color="3"/>
        <path d="M857.53 347.39c-2.52 0-4.69-.6-6.53-1.79-1.84-1.2-3.16-2.68-3.98-4.44a12.91 12.91 0 0 1-1.23-5.51c0-2.56.61-4.75 1.84-6.56 1.23-1.81 2.73-3.12 4.52-3.92 1.78-.8 3.62-1.2 5.51-1.2 1.83 0 3.43.34 4.83 1.01 1.4.67 2.45 1.49 3.16 2.46l-2.45 1.89c-.55-.76-1.32-1.38-2.31-1.87-1-.49-2.07-.74-3.23-.74-2.56 0-4.61.88-6.15 2.63s-2.31 3.85-2.31 6.31c0 2.62.77 4.77 2.31 6.45 1.54 1.68 3.56 2.52 6.06 2.52 1.26 0 2.4-.25 3.43-.76a6.59 6.59 0 0 0 2.55-2.2l2.49 1.7c-.88 1.2-2.02 2.17-3.43 2.91-1.42.74-3.1 1.11-5.08 1.11" fill="#122448" data-color="3"/>
    </g>
</svg>
