<?xml version="1.0" encoding="UTF-8"?>
<svg data-bbox="0 0 511.996 512" xmlns="http://www.w3.org/2000/svg" width="512pt" viewBox="0 0 512 512" height="512pt" data-type="shape">
    <g>
        <path d="M482 52h-68.965V26c0-14.336-11.664-26-26-26h-261.27c-14.777 0-26.804 12.023-26.804 26.8v65.204H20V82c0-5.512 4.484-10 10-10 5.52 0 10-4.477 10-10 0-5.52-4.48-10-10-10C13.457 52 0 65.46 0 82v320c0 16.543 13.457 30 30 30h164.824l-7.82 60H176c-5.523 0-10 4.477-10 10s4.477 10 10 10h160c5.52 0 10-4.477 10-10s-4.48-10-10-10h-11.008l-7.82-60h74.824c5.524 0 10-4.477 10-10 0-5.52-4.476-10-10-10H30c-5.516 0-10-4.484-10-10v-20h178.684c3.464 5.973 9.93 10 17.316 10h80c7.387 0 13.852-4.027 17.313-10h178.683v20c0 5.516-4.484 10-9.996 10h-10c-5.523 0-10 4.48-10 10 0 5.523 4.477 10 10 10h10c16.54 0 29.996-13.457 29.996-30V82c0-16.54-13.457-30-29.996-30zM304.824 492h-97.652l7.82-60h82.012zM482 72c5.512 0 9.996 4.488 9.996 10v10.004h-78.96V72zM20 112.004h78.96V362H20zM306 362c-5.523 0-10 4.477-10 10h-80c0-5.523-4.48-10-10-10h-87.04V26.8c0-3.687 3.118-6.8 6.806-6.8h261.27c3.253 0 6 2.746 6 6v336zm107.035 0V112.004h78.961V362zm0 0"/>
        <path d="M148.965 172h80c5.523 0 10-4.477 10-10V62c0-5.52-4.477-10-10-10h-80c-5.524 0-10 4.48-10 10v100c0 5.523 4.476 10 10 10zm10-100h60v80h-60zm0 0"/>
        <path d="M363.035 52h-94.07c-5.52 0-10 4.48-10 10 0 5.523 4.48 10 10 10h94.07c5.52 0 10-4.477 10-10 0-5.52-4.48-10-10-10zm0 0"/>
        <path d="M316 92.004h-47.035c-5.52 0-10 4.476-10 10 0 5.52 4.48 10 10 10H316c5.52 0 10-4.48 10-10 0-5.524-4.48-10-10-10zm0 0"/>
        <path d="M148.965 212.004h80c5.523 0 10-4.48 10-10 0-5.524-4.477-10-10-10h-80c-5.524 0-10 4.476-10 10 0 5.52 4.476 10 10 10zm0 0"/>
        <path d="M316 232.004H148.965c-5.524 0-10 4.476-10 10 0 5.523 4.476 10 10 10H316c5.52 0 10-4.477 10-10 0-5.524-4.48-10-10-10zm0 0"/>
        <path d="M316 272.004H148.965c-5.524 0-10 4.48-10 10 0 5.523 4.476 10 10 10H316c5.52 0 10-4.477 10-10 0-5.52-4.48-10-10-10zm0 0"/>
        <path d="M316 312.008H148.965c-5.524 0-10 4.476-10 10 0 5.52 4.476 10 10 10H316c5.52 0 10-4.48 10-10 0-5.524-4.48-10-10-10zm0 0"/>
        <path d="M70.004 72c5.52 0 10-4.477 10-10 0-5.52-4.48-10-10-10h-.008C64.473 52 60 56.48 60 62c0 5.523 4.48 10 10.004 10zm0 0"/>
        <path d="M432 412h-.004c-5.523 0-9.996 4.48-9.996 10 0 5.523 4.477 10 10 10s10-4.477 10-10c0-5.52-4.477-10-10-10zm0 0"/>
    </g>
</svg>
